<svg width="201" height="54" viewBox="0 0 201 54" fill="none" xmlns="http://www.w3.org/2000/svg">
<path d="M21.1196 49.2702C20.5652 49.0242 19.7831 48.5582 19.2275 48.2472L15.9312 46.3938L11.5953 43.962C10.1148 43.13 8.70283 42.4185 7.42934 41.2755C6.02334 40.0258 4.93623 38.4584 4.2584 36.7034C3.86254 35.6727 3.61693 34.5906 3.52915 33.49C3.44063 32.3333 3.49461 30.631 3.49685 29.4437L3.4995 22.4903L3.49945 15.558C3.49919 14.8828 3.43803 12.0906 3.5877 11.598C3.71132 11.5415 3.85761 11.5284 3.98548 11.5995C5.26943 12.3137 6.57985 13.0758 7.8679 13.7793C8.20676 13.9644 9.15293 14.4614 9.25424 14.7284C9.42674 15.1829 9.36371 17.0734 9.36288 17.5332L9.35851 27.4356C9.35872 28.7051 9.28581 31.3674 9.41031 32.5538C9.48826 33.2355 9.66222 33.9027 9.92713 34.5357C10.971 37.1008 12.6671 37.9773 14.8919 39.24L17.995 41.0113C19.5209 41.885 20.5231 42.3483 21.1508 44.0707C21.8263 42.1211 23.5279 41.4538 25.2061 40.497L27.8797 38.9576C28.408 38.6524 29.1486 38.2556 29.6343 37.9165C31.143 36.8596 32.2268 35.3019 32.6938 33.5205C33.01 32.3121 32.9169 29.5579 32.9106 28.1755C33.3599 27.8345 34.3012 27.316 34.8369 26.9468C36.5686 25.7528 37.7299 24.4633 38.4439 22.4611C38.5864 22.0611 38.7143 22.2229 38.7955 21.7754L38.7986 28.9172C38.7986 30.2711 38.8236 31.6661 38.7887 33.017C38.7133 35.9398 37.3279 38.8266 35.269 40.8844C34.6694 41.4731 34.0105 41.9983 33.3033 42.4518C32.5076 42.9641 31.4732 43.5112 30.6365 43.9813L25.8624 46.6569L22.8259 48.3616C22.4119 48.5936 21.5211 49.1178 21.1196 49.2702Z" fill="#0062F6"/>
<path d="M15.6407 17.6426C16.0469 17.6853 18.426 19.1302 18.8502 19.4455C19.1961 19.7023 19.5143 19.9945 19.7995 20.3174C21.423 22.1508 21.1328 23.9069 21.1359 26.1868L21.1333 31.1959L21.1422 37.0293C21.1453 38.1921 21.1754 39.5047 21.1094 40.6514C20.7277 40.7268 19.9242 40.0981 19.5657 39.9093C18.1799 39.1802 16.9669 38.3253 16.2128 36.9092C15.8675 36.2622 15.6585 35.5513 15.5988 34.8204C15.5388 34.1479 15.5687 33.0203 15.5682 32.3112L15.5673 27.8366L15.5641 21.237C15.563 20.5716 15.5105 18.0788 15.6407 17.6426Z" fill="#0062F6"/>
<path d="M32.9102 28.1755C29.8663 30.1146 26.551 31.8166 23.489 33.7473C23.254 33.8956 23.0215 34.0544 22.7537 34.1311C22.6731 34.1108 22.6117 34.116 22.5898 34.0511C22.4323 33.3226 22.4806 32.0938 22.6034 31.3792C23.1349 28.2927 25.7055 27.008 28.1081 25.577L32.491 22.9764L36.0299 20.9066C36.4725 20.6425 38.3525 19.4201 38.6942 19.4807C38.8528 19.8798 38.7982 21.257 38.795 21.7754C38.7139 22.2229 38.586 22.0611 38.4435 22.461C37.7295 24.4632 36.5682 25.7527 34.8364 26.9468C34.3008 27.316 33.3595 27.8344 32.9102 28.1755Z" fill="#0062F6"/>
<path d="M38.5293 11.4902C38.6578 11.5193 38.6131 11.507 38.7285 11.5875C38.9173 11.9643 38.7597 13.8861 38.6448 14.3653C38.0103 17.0213 36.0716 18.1208 33.8895 19.4034L30.8051 21.2113C28.9787 22.282 27.1491 23.3607 25.3264 24.4374C24.4719 24.9419 23.604 25.5378 22.7469 26.0673L22.5998 26.0569L22.528 25.9597C22.4724 24.9152 22.4526 23.7503 22.7345 22.7381C23.6087 19.5961 26.7123 18.3621 29.2548 16.7954C32.2825 14.9298 35.408 13.2097 38.5293 11.4902Z" fill="#0062F6"/>
<path d="M21.0501 4.72852C21.256 4.74682 21.333 4.77496 21.514 4.88645C23.2879 5.97834 25.0628 7.08313 26.8424 8.16436L29.8301 9.97709C30.3985 10.3227 31.0725 10.7091 31.6019 11.0893C31.1785 11.3899 27.1513 13.7446 26.9662 13.7665C26.8335 13.5718 26.8689 12.9154 26.7847 12.6073C26.4841 11.5073 25.2651 10.9865 24.3436 10.4372C23.3055 9.8254 22.2712 9.20695 21.241 8.58196C21.0121 8.4806 16.9992 11.0289 16.4716 11.3248C16.2045 11.4639 15.9898 11.7272 15.7982 11.9068C15.3644 12.3135 15.6836 13.609 15.1985 13.7289C14.6493 13.5078 13.4258 12.7384 12.873 12.4156C12.2425 12.0474 11.219 11.497 10.6719 11.0953C11.6486 10.3746 13.7228 9.19775 14.8173 8.5363L21.0501 4.72852Z" fill="url(#paint0_linear_800_2423)"/>
<path d="M20.8747 11.5347C22.544 11.3921 24.0153 12.6251 24.1666 14.2939C24.3184 15.9627 23.0932 17.4404 21.4249 17.6008C19.7445 17.7623 18.2532 16.5259 18.1006 14.8445C17.948 13.163 19.1923 11.6783 20.8747 11.5347Z" fill="url(#paint1_linear_800_2423)"/>
<path d="M72.9726 12.5127C73.7265 12.5127 74.3354 12.7737 74.7993 13.2955C75.2632 13.7884 75.4951 14.4118 75.4951 15.1657V30.9095C75.4951 33.316 74.9732 35.447 73.9294 37.3027C72.9147 39.1583 71.5084 40.608 69.7108 41.6518C67.9132 42.6956 65.8256 43.2175 63.4481 43.2175C61.0706 43.2175 58.9685 42.6956 57.1419 41.6518C55.3442 40.608 53.9235 39.1583 52.8797 37.3027C51.8649 35.447 51.3575 33.316 51.3575 30.9095V15.1657C51.3575 14.4118 51.6185 13.7884 52.1404 13.2955C52.6623 12.7737 53.3291 12.5127 54.141 12.5127C54.8078 12.5127 55.4022 12.7737 55.9241 13.2955C56.475 13.7884 56.7504 14.4118 56.7504 15.1657V30.9095C56.7504 32.3592 57.0549 33.6204 57.6638 34.6932C58.3016 35.737 59.128 36.5488 60.1428 37.1287C61.1865 37.7086 62.2883 37.9985 63.4481 37.9985C64.6948 37.9985 65.8546 37.7086 66.9274 37.1287C68.0002 36.5488 68.87 35.737 69.5368 34.6932C70.2037 33.6204 70.5371 32.3592 70.5371 30.9095V15.1657C70.5371 14.4118 70.7546 13.7884 71.1895 13.2955C71.6244 12.7737 72.2188 12.5127 72.9726 12.5127ZM91.0684 19.2973C92.721 19.2973 94.1562 19.4713 95.374 19.8192C96.6207 20.1671 97.5775 20.66 98.2444 21.2979C98.9403 21.9068 99.2882 22.6461 99.2882 23.516C99.2882 24.0958 99.1142 24.6467 98.7663 25.1686C98.4184 25.6615 97.911 25.908 97.2441 25.908C96.7802 25.908 96.3888 25.85 96.0698 25.734C95.7799 25.589 95.5189 25.4151 95.287 25.2121C95.055 25.0092 94.7796 24.8207 94.4607 24.6467C94.1707 24.4728 93.7213 24.3423 93.1124 24.2553C92.5326 24.1393 92.0976 24.0814 91.8077 24.0814C90.329 24.0814 89.0678 24.4003 88.024 25.0382C87.0092 25.676 86.2263 26.5458 85.6755 27.6476C85.1246 28.7204 84.8491 29.9672 84.8491 31.3879C84.8491 32.7796 85.1246 34.0263 85.6755 35.1281C86.2553 36.2009 87.0382 37.0562 88.024 37.6941C89.0388 38.332 90.1985 38.6509 91.5033 38.6509C92.2281 38.6509 92.8515 38.6074 93.3734 38.5204C93.8953 38.4334 94.3302 38.303 94.6781 38.129C95.084 37.897 95.4465 37.6506 95.7654 37.3896C96.0843 37.1287 96.5627 36.9982 97.2006 36.9982C97.9545 36.9982 98.5343 37.2447 98.9403 37.7376C99.3462 38.2015 99.5491 38.7814 99.5491 39.4772C99.5491 40.2021 99.1432 40.8689 98.3314 41.4778C97.5195 42.0577 96.4468 42.5361 95.113 42.913C93.8083 43.2609 92.3876 43.4349 90.8509 43.4349C88.5604 43.4349 86.5743 42.913 84.8926 41.8692C83.211 40.7964 81.9062 39.3467 80.9784 37.5201C80.0796 35.6935 79.6302 33.6494 79.6302 31.3879C79.6302 29.0103 80.1086 26.9228 81.0654 25.1251C82.0512 23.2985 83.3994 21.8778 85.1101 20.863C86.8497 19.8192 88.8358 19.2973 91.0684 19.2973ZM114.664 19.2973C116.751 19.2973 118.331 19.7467 119.404 20.6456C120.506 21.5444 121.26 22.7476 121.666 24.2553C122.072 25.734 122.275 27.3867 122.275 29.2133V40.347C122.275 41.1009 122.028 41.7388 121.535 42.2607C121.042 42.7536 120.419 43 119.665 43C118.911 43 118.288 42.7536 117.795 42.2607C117.302 41.7388 117.056 41.1009 117.056 40.347V29.2133C117.056 28.2565 116.94 27.4012 116.708 26.6473C116.476 25.8645 116.055 25.2411 115.447 24.7772C114.838 24.3133 113.968 24.0814 112.837 24.0814C111.735 24.0814 110.793 24.3133 110.01 24.7772C109.227 25.2411 108.633 25.8645 108.227 26.6473C107.85 27.4012 107.662 28.2565 107.662 29.2133V40.347C107.662 41.1009 107.415 41.7388 106.922 42.2607C106.429 42.7536 105.806 43 105.052 43C104.298 43 103.675 42.7536 103.182 42.2607C102.689 41.7388 102.443 41.1009 102.443 40.347V13.4695C102.443 12.7157 102.689 12.0923 103.182 11.5994C103.675 11.0775 104.298 10.8166 105.052 10.8166C105.806 10.8166 106.429 11.0775 106.922 11.5994C107.415 12.0923 107.662 12.7157 107.662 13.4695V24.2553L107.009 24.1248C107.27 23.6319 107.633 23.11 108.096 22.5592C108.56 21.9793 109.126 21.4429 109.793 20.95C110.46 20.4571 111.199 20.0657 112.011 19.7757C112.823 19.4568 113.707 19.2973 114.664 19.2973ZM138.016 43.4349C135.551 43.4349 133.406 42.9275 131.579 41.9127C129.781 40.8689 128.39 39.4627 127.404 37.6941C126.447 35.9254 125.969 33.9248 125.969 31.6923C125.969 29.0828 126.491 26.8648 127.534 25.0382C128.607 23.1825 129.999 21.7618 131.709 20.776C133.42 19.7902 135.232 19.2973 137.146 19.2973C138.625 19.2973 140.016 19.6018 141.321 20.2106C142.655 20.8195 143.829 21.6603 144.844 22.7331C145.859 23.7769 146.656 24.9947 147.236 26.3864C147.845 27.7781 148.149 29.2568 148.149 30.8225C148.12 31.5183 147.845 32.0837 147.323 32.5186C146.801 32.9535 146.192 33.171 145.496 33.171H128.883L127.578 28.8219H143.539L142.582 29.6917V28.5174C142.524 27.6766 142.22 26.9228 141.669 26.2559C141.147 25.589 140.48 25.0671 139.668 24.6902C138.886 24.2843 138.045 24.0814 137.146 24.0814C136.276 24.0814 135.464 24.1973 134.71 24.4293C133.957 24.6612 133.304 25.0527 132.753 25.6035C132.202 26.1544 131.767 26.8938 131.449 27.8216C131.13 28.7494 130.97 29.9237 130.97 31.3444C130.97 32.9101 131.289 34.2438 131.927 35.3456C132.594 36.4183 133.435 37.2447 134.449 37.8246C135.493 38.3754 136.595 38.6509 137.755 38.6509C138.828 38.6509 139.683 38.5639 140.321 38.3899C140.959 38.216 141.466 38.013 141.843 37.7811C142.249 37.5201 142.611 37.3027 142.93 37.1287C143.452 36.8677 143.945 36.7373 144.409 36.7373C145.047 36.7373 145.569 36.9547 145.975 37.3896C146.409 37.8246 146.627 38.332 146.627 38.9118C146.627 39.6947 146.221 40.405 145.409 41.0429C144.655 41.6808 143.597 42.2462 142.234 42.7391C140.872 43.203 139.465 43.4349 138.016 43.4349ZM152.671 19.7322C153.221 19.7322 153.729 19.8772 154.193 20.1671C154.657 20.4281 155.005 20.834 155.236 21.3849L161.63 35.9979L160.673 36.4328L167.197 21.4284C167.689 20.2686 168.458 19.7177 169.502 19.7757C170.226 19.7757 170.806 20.0077 171.241 20.4716C171.705 20.9065 171.937 21.4574 171.937 22.1242C171.937 22.3272 171.894 22.5447 171.807 22.7766C171.749 23.0086 171.676 23.226 171.589 23.429L163.456 41.3473C162.992 42.3911 162.253 42.942 161.238 43C160.687 43.087 160.151 42.9855 159.629 42.6956C159.136 42.4056 158.759 41.9562 158.498 41.3473L150.409 23.429C150.351 23.284 150.278 23.0956 150.192 22.8636C150.134 22.6316 150.105 22.3562 150.105 22.0373C150.105 21.5154 150.336 21.008 150.8 20.5151C151.264 19.9932 151.888 19.7322 152.671 19.7322ZM194.142 19.2973C194.896 19.2973 195.52 19.5438 196.012 20.0367C196.505 20.5296 196.752 21.1674 196.752 21.9503V40.347C196.752 41.1009 196.505 41.7388 196.012 42.2607C195.52 42.7536 194.896 43 194.142 43C193.389 43 192.765 42.7536 192.272 42.2607C191.779 41.7388 191.533 41.1009 191.533 40.347V38.216L192.49 38.6074C192.49 38.9843 192.287 39.4482 191.881 39.9991C191.475 40.521 190.924 41.0429 190.228 41.5648C189.532 42.0867 188.706 42.5361 187.749 42.913C186.821 43.2609 185.807 43.4349 184.705 43.4349C182.704 43.4349 180.892 42.9275 179.268 41.9127C177.645 40.8689 176.354 39.4482 175.398 37.6506C174.47 35.824 174.006 33.7364 174.006 31.3879C174.006 29.0103 174.47 26.9228 175.398 25.1251C176.354 23.2985 177.63 21.8778 179.225 20.863C180.82 19.8192 182.588 19.2973 184.531 19.2973C185.778 19.2973 186.923 19.4858 187.967 19.8627C189.01 20.2396 189.909 20.718 190.663 21.2979C191.446 21.8778 192.04 22.4722 192.446 23.0811C192.881 23.6609 193.099 24.1538 193.099 24.5598L191.533 25.1251V21.9503C191.533 21.1964 191.779 20.5731 192.272 20.0802C192.765 19.5583 193.389 19.2973 194.142 19.2973ZM185.357 38.6509C186.633 38.6509 187.749 38.332 188.706 37.6941C189.663 37.0562 190.402 36.1864 190.924 35.0846C191.475 33.9828 191.75 32.7506 191.75 31.3879C191.75 29.9961 191.475 28.7494 190.924 27.6476C190.402 26.5458 189.663 25.676 188.706 25.0382C187.749 24.4003 186.633 24.0814 185.357 24.0814C184.11 24.0814 183.009 24.4003 182.052 25.0382C181.095 25.676 180.341 26.5458 179.79 27.6476C179.268 28.7494 179.007 29.9961 179.007 31.3879C179.007 32.7506 179.268 33.9828 179.79 35.0846C180.341 36.1864 181.095 37.0562 182.052 37.6941C183.009 38.332 184.11 38.6509 185.357 38.6509Z" fill="url(#paint2_linear_800_2423)"/>
<defs>
<linearGradient id="paint0_linear_800_2423" x1="21.1369" y1="4.72852" x2="21.1369" y2="13.7665" gradientUnits="userSpaceOnUse">
<stop stop-color="#FFCB3D"/>
<stop offset="1" stop-color="#FAA200"/>
</linearGradient>
<linearGradient id="paint1_linear_800_2423" x1="21.1336" y1="11.5234" x2="21.1336" y2="17.615" gradientUnits="userSpaceOnUse">
<stop stop-color="#FFCB3D"/>
<stop offset="1" stop-color="#FAA200"/>
</linearGradient>
<linearGradient id="paint2_linear_800_2423" x1="124.096" y1="27.072" x2="124.096" y2="43.2" gradientUnits="userSpaceOnUse">
<stop stop-color="#3B90FF"/>
<stop offset="1" stop-color="#0062F6"/>
</linearGradient>
</defs>
</svg>
