<svg width="14" height="14" viewBox="0 0 14 14" fill="none" xmlns="http://www.w3.org/2000/svg">
<path d="M11.0827 2.33464H9.91602V1.7513C9.91602 1.59659 9.85456 1.44822 9.74516 1.33882C9.63577 1.22943 9.48739 1.16797 9.33268 1.16797C9.17797 1.16797 9.0296 1.22943 8.9202 1.33882C8.81081 1.44822 8.74935 1.59659 8.74935 1.7513V2.33464H5.24935V1.7513C5.24935 1.59659 5.18789 1.44822 5.07849 1.33882C4.9691 1.22943 4.82073 1.16797 4.66602 1.16797C4.51131 1.16797 4.36293 1.22943 4.25354 1.33882C4.14414 1.44822 4.08268 1.59659 4.08268 1.7513V2.33464H2.91602C2.45189 2.33464 2.00677 2.51901 1.67858 2.8472C1.35039 3.17539 1.16602 3.62051 1.16602 4.08464V11.0846C1.16602 11.5488 1.35039 11.9939 1.67858 12.3221C2.00677 12.6503 2.45189 12.8346 2.91602 12.8346H11.0827C11.5468 12.8346 11.9919 12.6503 12.3201 12.3221C12.6483 11.9939 12.8327 11.5488 12.8327 11.0846V4.08464C12.8327 3.62051 12.6483 3.17539 12.3201 2.8472C11.9919 2.51901 11.5468 2.33464 11.0827 2.33464ZM11.666 11.0846C11.666 11.2393 11.6046 11.3877 11.4952 11.4971C11.3858 11.6065 11.2374 11.668 11.0827 11.668H2.91602C2.76131 11.668 2.61293 11.6065 2.50354 11.4971C2.39414 11.3877 2.33268 11.2393 2.33268 11.0846V7.0013H11.666V11.0846ZM11.666 5.83464H2.33268V4.08464C2.33268 3.92993 2.39414 3.78155 2.50354 3.67216C2.61293 3.56276 2.76131 3.5013 2.91602 3.5013H4.08268V4.08464C4.08268 4.23935 4.14414 4.38772 4.25354 4.49711C4.36293 4.60651 4.51131 4.66797 4.66602 4.66797C4.82073 4.66797 4.9691 4.60651 5.07849 4.49711C5.18789 4.38772 5.24935 4.23935 5.24935 4.08464V3.5013H8.74935V4.08464C8.74935 4.23935 8.81081 4.38772 8.9202 4.49711C9.0296 4.60651 9.17797 4.66797 9.33268 4.66797C9.48739 4.66797 9.63577 4.60651 9.74516 4.49711C9.85456 4.38772 9.91602 4.23935 9.91602 4.08464V3.5013H11.0827C11.2374 3.5013 11.3858 3.56276 11.4952 3.67216C11.6046 3.78155 11.666 3.92993 11.666 4.08464V5.83464Z" fill="#9DA4AE"/>
</svg>
