<svg width="50" height="50" viewBox="0 0 50 50" fill="none" xmlns="http://www.w3.org/2000/svg">
<path fill-rule="evenodd" clip-rule="evenodd" d="M25.0401 6.25C20.3349 6.25 16.0484 7.80417 13.5119 9.07396C13.2828 9.18854 13.0689 9.30035 12.8703 9.40937C12.4765 9.62396 12.1411 9.82396 11.8744 10L14.7599 14.2479L16.1182 14.7885C21.4265 17.4667 28.5453 17.4667 33.8547 14.7885L35.3963 13.9885L38.1244 10C37.5587 9.6324 36.9712 9.2995 36.3651 9.00312C33.8411 7.74687 29.6567 6.25 25.0411 6.25M18.3307 11.0583C17.3092 10.8661 16.3001 10.6129 15.3088 10.3C17.6849 9.24479 21.2255 8.125 25.0411 8.125C27.6838 8.125 30.1828 8.6625 32.2494 9.34375C29.8276 9.68438 27.2432 10.2625 24.7807 10.974C22.8432 11.5344 20.5786 11.474 18.3307 11.0583ZM34.9557 16.3333L34.6994 16.4625C28.8599 19.4083 21.114 19.4083 15.2744 16.4625L15.0317 16.3396C6.25778 25.9656 -0.440142 43.7469 25.0401 43.7469C50.5203 43.7469 43.6599 25.6354 34.9557 16.3333ZM23.9578 25C23.4052 25 22.8753 25.2195 22.4846 25.6102C22.0939 26.0009 21.8744 26.5308 21.8744 27.0833C21.8744 27.6359 22.0939 28.1658 22.4846 28.5565C22.8753 28.9472 23.4052 29.1667 23.9578 29.1667V25ZM26.0411 22.9167V21.875H23.9578V22.9167C22.8527 22.9167 21.7929 23.3557 21.0115 24.1371C20.2301 24.9185 19.7911 25.9783 19.7911 27.0833C19.7911 28.1884 20.2301 29.2482 21.0115 30.0296C21.7929 30.811 22.8527 31.25 23.9578 31.25V35.4167C23.0515 35.4167 22.2797 34.8385 21.9922 34.0281C21.9495 33.8955 21.8807 33.7728 21.7898 33.6673C21.6989 33.5618 21.5878 33.4756 21.4629 33.4137C21.3381 33.3519 21.2022 33.3157 21.0632 33.3074C20.9241 33.299 20.7848 33.3186 20.6535 33.365C20.5222 33.4114 20.4015 33.4836 20.2986 33.5775C20.1957 33.6713 20.1127 33.7849 20.0544 33.9114C19.9961 34.0379 19.9638 34.1748 19.9594 34.314C19.955 34.4532 19.9785 34.5919 20.0286 34.7219C20.3158 35.5344 20.8479 36.2379 21.5516 36.7355C22.2553 37.233 23.096 37.5001 23.9578 37.5V38.5417H26.0411V37.5C27.1462 37.5 28.206 37.061 28.9874 36.2796C29.7688 35.4982 30.2078 34.4384 30.2078 33.3333C30.2078 32.2283 29.7688 31.1685 28.9874 30.3871C28.206 29.6057 27.1462 29.1667 26.0411 29.1667V25C26.9474 25 27.7192 25.5781 28.0067 26.3885C28.0494 26.5211 28.1182 26.6438 28.2091 26.7493C28.3 26.8549 28.4111 26.9411 28.5359 27.0029C28.6607 27.0648 28.7967 27.1009 28.9357 27.1093C29.0747 27.1177 29.214 27.0981 29.3454 27.0517C29.4767 27.0053 29.5974 26.933 29.7003 26.8392C29.8032 26.7453 29.8862 26.6318 29.9445 26.5053C30.0028 26.3788 30.0351 26.2419 30.0395 26.1026C30.0439 25.9634 30.0204 25.8247 29.9703 25.6948C29.6831 24.8822 29.151 24.1787 28.4473 23.6812C27.7436 23.1836 26.9029 22.9165 26.0411 22.9167ZM26.0411 31.25V35.4167C26.5936 35.4167 27.1235 35.1972 27.5142 34.8065C27.905 34.4158 28.1244 33.8859 28.1244 33.3333C28.1244 32.7808 27.905 32.2509 27.5142 31.8602C27.1235 31.4695 26.5936 31.25 26.0411 31.25Z" fill="#43B75D"/>
</svg>
