<svg width="50" height="50" viewBox="0 0 50 50" fill="none" xmlns="http://www.w3.org/2000/svg">
<path d="M26.2104 48.4582L26.2354 48.4541C26.2521 48.4569 26.2632 48.4694 26.2687 48.4916L26.3042 49.3812L26.2958 49.4166L26.2708 49.4499L26.0542 49.6041L26.0292 49.6124L25.9979 49.6041L25.7813 49.4499L25.7604 49.4228L25.75 49.3812L25.7854 48.4895L25.7937 48.4687C25.8049 48.4548 25.8215 48.4506 25.8437 48.4562L25.9917 48.5312L26.0208 48.5395L26.0625 48.5312L26.2104 48.4582Z" fill="#8B5CF6"/>
<path d="M26.7562 48.2228L26.7854 48.2187C26.8062 48.2228 26.8201 48.2381 26.8271 48.2645L26.8979 49.5437L26.8896 49.5728C26.8757 49.5909 26.8556 49.5964 26.8292 49.5895L26.4104 49.3978L26.3937 49.3812L26.3833 49.3562L26.3458 48.4603L26.3521 48.4374L26.3729 48.4166L26.7562 48.2228Z" fill="#8B5CF6"/>
<path d="M25.2652 48.2178C25.2757 48.2155 25.2867 48.2173 25.2958 48.2228L25.6792 48.4145L25.7 48.4353L25.7062 48.4603L25.6687 49.3562L25.6625 49.3791L25.6417 49.3957L25.2229 49.5895L25.1917 49.5937C25.1694 49.5853 25.1576 49.5687 25.1562 49.5437L25.2271 48.2645L25.2396 48.2353C25.2455 48.2264 25.2547 48.2201 25.2652 48.2178Z" fill="#8B5CF6"/>
<path d="M24.9987 25C28.9008 25 32.4362 26.2917 35.0299 28.0979C37.4945 29.8167 39.582 32.3708 39.582 35.1188C39.582 36.6271 38.9383 37.8771 37.9237 38.8063C36.9695 39.6833 35.7237 40.2521 34.4404 40.6396C31.8758 41.4167 28.4987 41.6667 24.9987 41.6667C21.4987 41.6667 18.1216 41.4167 15.557 40.6396C14.2737 40.2521 13.0279 39.6833 12.0716 38.8063C11.0612 37.8792 10.4154 36.6292 10.4154 35.1208C10.4154 32.3729 12.5029 29.8188 14.9674 28.1C17.5612 26.2917 21.0966 25 24.9987 25ZM39.582 27.0833C41.757 27.0833 43.732 27.8021 45.1924 28.8188C46.5258 29.75 47.9154 31.2979 47.9154 33.1854C47.9154 34.2625 47.4466 35.1562 46.7487 35.7958C46.1112 36.3813 45.3237 36.725 44.6049 36.9417C43.6258 37.2375 42.4695 37.3896 41.2695 37.4563C41.5237 36.7375 41.6654 35.9563 41.6654 35.1188C41.6654 31.9208 39.6674 29.2042 37.432 27.3188C38.1381 27.1628 38.859 27.0838 39.582 27.0833ZM10.4154 27.0833C11.1612 27.0861 11.8779 27.1646 12.5654 27.3188C10.332 29.2042 8.33203 31.9208 8.33203 35.1188C8.33203 35.9563 8.4737 36.7375 8.72786 37.4563C7.52786 37.3896 6.3737 37.2375 5.39245 36.9417C4.6737 36.725 3.8862 36.3813 3.24661 35.7958C2.88 35.4674 2.58679 35.0653 2.38612 34.6159C2.18544 34.1664 2.08183 33.6797 2.08203 33.1875C2.08203 31.3021 3.46953 29.7521 4.80495 28.8208C6.45674 27.6884 8.41268 27.0827 10.4154 27.0833ZM38.5404 14.5833C39.9217 14.5833 41.2465 15.1321 42.2232 16.1088C43.2 17.0856 43.7487 18.4103 43.7487 19.7917C43.7487 21.173 43.2 22.4978 42.2232 23.4745C41.2465 24.4513 39.9217 25 38.5404 25C37.159 25 35.8343 24.4513 34.8575 23.4745C33.8808 22.4978 33.332 21.173 33.332 19.7917C33.332 18.4103 33.8808 17.0856 34.8575 16.1088C35.8343 15.1321 37.159 14.5833 38.5404 14.5833ZM11.457 14.5833C12.8384 14.5833 14.1631 15.1321 15.1399 16.1088C16.1166 17.0856 16.6654 18.4103 16.6654 19.7917C16.6654 21.173 16.1166 22.4978 15.1399 23.4745C14.1631 24.4513 12.8384 25 11.457 25C10.0757 25 8.75094 24.4513 7.77418 23.4745C6.79743 22.4978 6.2487 21.173 6.2487 19.7917C6.2487 18.4103 6.79743 17.0856 7.77418 16.1088C8.75094 15.1321 10.0757 14.5833 11.457 14.5833ZM24.9987 6.25C27.2088 6.25 29.3285 7.12797 30.8913 8.69078C32.4541 10.2536 33.332 12.3732 33.332 14.5833C33.332 16.7935 32.4541 18.9131 30.8913 20.4759C29.3285 22.0387 27.2088 22.9167 24.9987 22.9167C22.7886 22.9167 20.6689 22.0387 19.1061 20.4759C17.5433 18.9131 16.6654 16.7935 16.6654 14.5833C16.6654 12.3732 17.5433 10.2536 19.1061 8.69078C20.6689 7.12797 22.7886 6.25 24.9987 6.25Z" fill="#8B5CF6"/>
</svg>
