<svg width="50" height="50" viewBox="0 0 50 50" fill="none" xmlns="http://www.w3.org/2000/svg">
<path d="M44.2441 11.0177L25.4941 4.76769C25.1734 4.66077 24.8266 4.66077 24.5059 4.76769L5.75586 11.0177C5.44474 11.1214 5.17414 11.3204 4.98239 11.5865C4.79064 11.8525 4.68748 12.1722 4.6875 12.5001V28.1251C4.6875 28.5395 4.85212 28.9369 5.14515 29.23C5.43817 29.523 5.8356 29.6876 6.25 29.6876C6.6644 29.6876 7.06183 29.523 7.35485 29.23C7.64788 28.9369 7.8125 28.5395 7.8125 28.1251V14.6681L14.373 16.8536C12.63 19.6697 12.0757 23.0623 12.8319 26.2866C13.5881 29.511 15.5929 32.3035 18.4063 34.0509C14.8906 35.4298 11.8516 37.9239 9.62891 41.3341C9.51331 41.5059 9.43302 41.699 9.3927 41.9021C9.35238 42.1052 9.35283 42.3143 9.39403 42.5172C9.43523 42.7201 9.51635 42.9129 9.63269 43.0842C9.74902 43.2555 9.89824 43.4019 10.0717 43.5151C10.2451 43.6282 10.4393 43.7057 10.643 43.7431C10.8466 43.7805 11.0557 43.7771 11.258 43.733C11.4604 43.6889 11.6519 43.605 11.8215 43.4863C11.9911 43.3675 12.1355 43.2162 12.2461 43.0411C15.1895 38.5255 19.8379 35.9376 25 35.9376C30.1621 35.9376 34.8106 38.5255 37.7539 43.0411C37.9831 43.3817 38.3371 43.6185 38.7394 43.7002C39.1417 43.7818 39.56 43.7019 39.9039 43.4776C40.2477 43.2533 40.4895 42.9028 40.5769 42.5016C40.6644 42.1005 40.5904 41.6811 40.3711 41.3341C38.1484 37.9239 35.0977 35.4298 31.5938 34.0509C34.4044 32.3035 36.4073 29.5129 37.1634 26.2909C37.9194 23.0689 37.3669 19.6786 35.627 16.8634L44.2441 13.9923C44.5553 13.8886 44.826 13.6897 45.0178 13.4236C45.2096 13.1576 45.3129 12.8379 45.3129 12.5099C45.3129 12.1819 45.2096 11.8622 45.0178 11.5961C44.826 11.3301 44.5553 11.1311 44.2441 11.0275V11.0177ZM34.375 23.4376C34.3754 24.9198 34.0244 26.3809 33.3508 27.7011C32.6772 29.0213 31.7002 30.163 30.4999 31.0325C29.2996 31.902 27.9102 32.4745 26.4458 32.7031C24.9814 32.9317 23.4837 32.8098 22.0755 32.3475C20.6673 31.8851 19.3888 31.0955 18.3449 30.0433C17.301 28.9912 16.5214 27.7065 16.0701 26.2948C15.6189 24.883 15.5087 23.3844 15.7488 21.9218C15.9889 20.4592 16.5723 19.0744 17.4512 17.881L24.5059 20.2247C24.8266 20.3317 25.1734 20.3317 25.4941 20.2247L32.5488 17.881C33.7358 19.4904 34.3758 21.4378 34.375 23.4376Z" fill="#0062F6"/>
</svg>
