<svg width="50" height="50" viewBox="0 0 50 50" fill="none" xmlns="http://www.w3.org/2000/svg">
<path opacity="0.5" d="M45.8346 20.8327H4.16797V39.5827C4.16797 41.2403 4.82645 42.83 5.99855 44.0021C7.17065 45.1742 8.76037 45.8327 10.418 45.8327H39.5846C41.2422 45.8327 42.832 45.1742 44.0041 44.0021C45.1762 42.83 45.8346 41.2403 45.8346 39.5827V20.8327ZM14.5846 16.666C14.0321 16.666 13.5022 16.4465 13.1115 16.0558C12.7208 15.6651 12.5013 15.1352 12.5013 14.5827V6.24935C12.5013 5.69681 12.7208 5.16691 13.1115 4.77621C13.5022 4.38551 14.0321 4.16602 14.5846 4.16602C15.1372 4.16602 15.6671 4.38551 16.0578 4.77621C16.4485 5.16691 16.668 5.69681 16.668 6.24935V14.5827C16.668 15.1352 16.4485 15.6651 16.0578 16.0558C15.6671 16.4465 15.1372 16.666 14.5846 16.666ZM35.418 16.666C34.8654 16.666 34.3355 16.4465 33.9448 16.0558C33.5541 15.6651 33.3346 15.1352 33.3346 14.5827V6.24935C33.3346 5.69681 33.5541 5.16691 33.9448 4.77621C34.3355 4.38551 34.8654 4.16602 35.418 4.16602C35.9705 4.16602 36.5004 4.38551 36.8911 4.77621C37.2818 5.16691 37.5013 5.69681 37.5013 6.24935V14.5827C37.5013 15.1352 37.2818 15.6651 36.8911 16.0558C36.5004 16.4465 35.9705 16.666 35.418 16.666Z" fill="#F59E0B"/>
<path d="M39.5846 8.33398H37.5013V14.584C37.5013 15.1365 37.2818 15.6664 36.8911 16.0571C36.5004 16.4478 35.9705 16.6673 35.418 16.6673C34.8654 16.6673 34.3355 16.4478 33.9448 16.0571C33.5541 15.6664 33.3346 15.1365 33.3346 14.584V8.33398H16.668V14.584C16.668 15.1365 16.4485 15.6664 16.0578 16.0571C15.6671 16.4478 15.1372 16.6673 14.5846 16.6673C14.0321 16.6673 13.5022 16.4478 13.1115 16.0571C12.7208 15.6664 12.5013 15.1365 12.5013 14.584V8.33398H10.418C8.76037 8.33398 7.17065 8.99246 5.99855 10.1646C4.82645 11.3367 4.16797 12.9264 4.16797 14.584V20.834H45.8346V14.584C45.8346 12.9264 45.1762 11.3367 44.0041 10.1646C42.832 8.99246 41.2422 8.33398 39.5846 8.33398Z" fill="#F59E0B"/>
</svg>
