<svg width="80" height="80" viewBox="0 0 80 80" fill="none" xmlns="http://www.w3.org/2000/svg">
<path d="M40 53.334C45.5228 53.334 50 48.8568 50 43.334C50 37.8111 45.5228 33.334 40 33.334C34.4772 33.334 30 37.8111 30 43.334C30 48.8568 34.4772 53.334 40 53.334Z" stroke="#9DA4AE" stroke-width="3"/>
<path d="M32.5927 70.0002H47.406C57.8093 70.0002 63.0127 70.0001 66.7493 67.5501C68.3621 66.494 69.7508 65.1302 70.836 63.5368C73.3327 59.8702 73.3327 54.7602 73.3327 44.5468C73.3327 34.3335 73.3327 29.2235 70.836 25.5568C69.7508 23.9635 68.3621 22.5997 66.7493 21.5435C64.3493 19.9668 61.3427 19.4035 56.7393 19.2035C54.5427 19.2035 52.6527 17.5702 52.2227 15.4535C51.8941 13.9031 51.0402 12.5136 49.8055 11.52C48.5708 10.5264 47.0309 9.98952 45.446 10.0002H34.5527C31.2593 10.0002 28.4227 12.2835 27.776 15.4535C27.346 17.5702 25.456 19.2035 23.2593 19.2035C18.6593 19.4035 15.6527 19.9702 13.2493 21.5435C11.6378 22.6 10.2503 23.9638 9.16602 25.5568C6.66602 29.2235 6.66602 34.3302 6.66602 44.5468C6.66602 54.7635 6.66602 59.8668 9.16268 63.5368C10.2427 65.1235 11.6293 66.4868 13.2493 67.5501C16.986 70.0001 22.1893 70.0002 32.5927 70.0002Z" stroke="#9DA4AE" stroke-width="3"/>
<path d="M63.3333 33.334H60" stroke="#9DA4AE" stroke-width="3" stroke-linecap="round"/>
</svg>
