<svg width="27" height="27" viewBox="0 0 27 27" fill="none" xmlns="http://www.w3.org/2000/svg">
<path d="M11.625 6.375V6.75H15.375V6.375C15.375 5.87772 15.1775 5.40081 14.8258 5.04917C14.4742 4.69754 13.9973 4.5 13.5 4.5C13.0027 4.5 12.5258 4.69754 12.1742 5.04917C11.8225 5.40081 11.625 5.87772 11.625 6.375ZM10.125 6.75V6.375C10.125 5.47989 10.4806 4.62145 11.1135 3.98851C11.7464 3.35558 12.6049 3 13.5 3C14.3951 3 15.2535 3.35558 15.8865 3.98851C16.5194 4.62145 16.875 5.47989 16.875 6.375V6.75H22.5C22.6989 6.75 22.8897 6.82902 23.0303 6.96967C23.171 7.11032 23.25 7.30109 23.25 7.5C23.25 7.69891 23.171 7.88968 23.0303 8.03033C22.8897 8.17098 22.6989 8.25 22.5 8.25H21.369L19.95 20.676C19.8454 21.5911 19.4076 22.4358 18.7201 23.0488C18.0326 23.6618 17.1436 24.0004 16.2225 24H10.7775C9.8564 24.0004 8.96735 23.6618 8.27989 23.0488C7.59243 22.4358 7.15464 21.5911 7.05 20.676L5.631 8.25H4.5C4.30109 8.25 4.11032 8.17098 3.96967 8.03033C3.82902 7.88968 3.75 7.69891 3.75 7.5C3.75 7.30109 3.82902 7.11032 3.96967 6.96967C4.11032 6.82902 4.30109 6.75 4.5 6.75H10.125ZM8.541 20.505C8.60362 21.0539 8.86602 21.5606 9.27819 21.9286C9.69037 22.2965 10.2235 22.4999 10.776 22.5H16.2233C16.7757 22.4999 17.3089 22.2965 17.7211 21.9286C18.1332 21.5606 18.3956 21.0539 18.4583 20.505L19.86 8.25H7.14075L8.541 20.505ZM11.25 10.875C11.4489 10.875 11.6397 10.954 11.7803 11.0947C11.921 11.2353 12 11.4261 12 11.625V19.125C12 19.3239 11.921 19.5147 11.7803 19.6553C11.6397 19.796 11.4489 19.875 11.25 19.875C11.0511 19.875 10.8603 19.796 10.7197 19.6553C10.579 19.5147 10.5 19.3239 10.5 19.125V11.625C10.5 11.4261 10.579 11.2353 10.7197 11.0947C10.8603 10.954 11.0511 10.875 11.25 10.875ZM16.5 11.625C16.5 11.4261 16.421 11.2353 16.2803 11.0947C16.1397 10.954 15.9489 10.875 15.75 10.875C15.5511 10.875 15.3603 10.954 15.2197 11.0947C15.079 11.2353 15 11.4261 15 11.625V19.125C15 19.3239 15.079 19.5147 15.2197 19.6553C15.3603 19.796 15.5511 19.875 15.75 19.875C15.9489 19.875 16.1397 19.796 16.2803 19.6553C16.421 19.5147 16.5 19.3239 16.5 19.125V11.625Z" fill="#EE443F"/>
</svg>
