<svg width="31" height="31" viewBox="0 0 31 31" fill="none" xmlns="http://www.w3.org/2000/svg">
<path d="M18.4999 8.50038L22.4999 12.5004M24.6739 10.3124C25.2026 9.7838 25.4997 9.06685 25.4998 8.31923C25.4999 7.57162 25.203 6.85459 24.6744 6.32588C24.1459 5.79717 23.4289 5.50009 22.6813 5.5C21.9337 5.49991 21.2166 5.7968 20.6879 6.32538L7.34193 19.6744C7.10975 19.9059 6.93805 20.1909 6.84193 20.5044L5.52093 24.8564C5.49509 24.9429 5.49314 25.0347 5.51529 25.1222C5.53743 25.2097 5.58285 25.2896 5.64673 25.3534C5.71061 25.4172 5.79055 25.4624 5.87809 25.4845C5.96563 25.5065 6.05749 25.5044 6.14393 25.4784L10.4969 24.1584C10.8101 24.0631 11.0951 23.8925 11.3269 23.6614L24.6739 10.3124Z" stroke="#03173C" stroke-width="1.2" stroke-linecap="round" stroke-linejoin="round"/>
</svg>
