<svg width="161" height="43" viewBox="0 0 161 43" fill="none" xmlns="http://www.w3.org/2000/svg">
<path d="M16.8961 39.3181C16.4526 39.1213 15.8268 38.7485 15.3824 38.4997L12.7453 37.017L9.27662 35.0716C8.09224 34.4059 6.96266 33.8368 5.94386 32.9223C4.81906 31.9226 3.94938 30.6687 3.40711 29.2647C3.09043 28.4401 2.89393 27.5744 2.82371 26.694C2.7529 25.7686 2.79608 24.4068 2.79787 23.4569L2.79999 17.8942L2.79995 12.3483C2.79974 11.8082 2.75082 9.57445 2.87055 9.18034C2.96944 9.13512 3.08647 9.12467 3.18878 9.18155C4.21593 9.75289 5.26427 10.3626 6.29471 10.9254C6.5658 11.0735 7.32274 11.4711 7.40378 11.6846C7.54178 12.0483 7.49136 13.5607 7.49069 13.9285L7.4872 21.8504C7.48736 22.8661 7.42904 24.9959 7.52864 25.945C7.591 26.4903 7.73017 27.0241 7.94209 27.5305C8.77717 29.5826 10.1341 30.2838 11.9139 31.294L14.3964 32.711C15.6171 33.4099 16.4189 33.7806 16.921 35.1585C17.4615 33.5988 18.8227 33.065 20.1653 32.2995L22.3041 31.0681C22.7268 30.8238 23.3193 30.5064 23.7078 30.2351C24.9148 29.3897 25.7818 28.1435 26.1554 26.7183C26.4084 25.7516 26.3339 23.5482 26.3289 22.4424C26.6883 22.1695 27.4414 21.7548 27.8699 21.4594C29.2553 20.5042 30.1843 19.4726 30.7555 17.8708C30.8695 17.5509 30.9719 17.6803 31.0368 17.3223L31.0393 23.0357C31.0393 24.1188 31.0592 25.2349 31.0314 26.3155C30.971 28.6538 29.8627 30.9632 28.2156 32.6095C27.7359 33.0804 27.2088 33.5006 26.643 33.8634C26.0065 34.2732 25.179 34.7109 24.5096 35.087L20.6903 37.2275L18.2611 38.5913C17.9299 38.7768 17.2172 39.1962 16.8961 39.3181Z" fill="#0062F6"/>
<path d="M12.5138 14.0156C12.8387 14.0498 14.7419 15.2057 15.0813 15.458C15.358 15.6634 15.6126 15.8972 15.8408 16.1555C17.1396 17.6222 16.9074 19.027 16.9099 20.851L16.9078 24.8583L16.9149 29.525C16.9174 30.4553 16.9415 31.5054 16.8887 32.4227C16.5833 32.483 15.9405 31.9801 15.6538 31.829C14.5451 31.2458 13.5747 30.5618 12.9714 29.429C12.6952 28.9114 12.528 28.3426 12.4802 27.7579C12.4322 27.2199 12.4561 26.3178 12.4557 25.7506L12.455 22.1708L12.4525 16.8912C12.4516 16.3588 12.4095 14.3646 12.5138 14.0156Z" fill="#0062F6"/>
<path d="M26.3281 22.4419C23.8931 23.9932 21.2408 25.3548 18.7912 26.8994C18.6032 27.018 18.4172 27.1451 18.2029 27.2064C18.1384 27.1902 18.0894 27.1943 18.0719 27.1424C17.9458 26.5596 17.9845 25.5766 18.0827 25.0049C18.5079 22.5358 20.5644 21.508 22.4865 20.3632L25.9928 18.2826L28.824 16.6269C29.178 16.4155 30.682 15.4376 30.9553 15.4861C31.0822 15.8054 31.0385 16.9072 31.036 17.3218C30.9711 17.6798 30.8688 17.5504 30.7548 17.8704C30.1836 19.4721 29.2546 20.5037 27.8692 21.459C27.4406 21.7544 26.6876 22.1691 26.3281 22.4419Z" fill="#0062F6"/>
<path d="M30.8243 9.09375C30.927 9.11696 30.8912 9.10719 30.9836 9.17155C31.1346 9.47301 31.0086 11.0104 30.9166 11.3938C30.409 13.5186 28.8581 14.3982 27.1124 15.4243L24.6448 16.8706C23.1837 17.7272 21.7201 18.5901 20.2619 19.4515C19.5783 19.8551 18.884 20.3318 18.1983 20.7554L18.0806 20.7471L18.0232 20.6693C17.9787 19.8337 17.9629 18.9018 18.1884 18.0921C18.8877 15.5784 21.3706 14.5913 23.4046 13.3379C25.8268 11.8454 28.3272 10.4693 30.8243 9.09375Z" fill="#0062F6"/>
<path d="M16.8416 3.68359C17.0064 3.69824 17.068 3.72075 17.2127 3.80994C18.6318 4.68346 20.0518 5.56729 21.4755 6.43227L23.8656 7.88246C24.3203 8.15895 24.8595 8.46803 25.283 8.77224C24.9444 9.01266 21.7226 10.8964 21.5745 10.914C21.4684 10.7582 21.4967 10.2331 21.4293 9.98665C21.1888 9.10661 20.2136 8.68999 19.4764 8.25057C18.646 7.7611 17.8185 7.26635 16.9943 6.76635C16.8113 6.68526 13.6009 8.72393 13.1788 8.96062C12.9651 9.07187 12.7934 9.28251 12.6401 9.42625C12.2931 9.75155 12.5485 10.788 12.1604 10.8839C11.721 10.7071 10.7422 10.0915 10.2999 9.83326C9.79554 9.5387 8.97673 9.09837 8.53906 8.77702C9.32046 8.20043 10.9798 7.25898 11.8554 6.72982L16.8416 3.68359Z" fill="url(#paint0_linear_4169_2501)"/>
<path d="M16.7001 9.12811C18.0356 9.01408 19.2126 10.0005 19.3337 11.3355C19.4551 12.6706 18.475 13.8527 17.1403 13.981C15.796 14.1102 14.6029 13.1211 14.4808 11.776C14.3588 10.4308 15.3542 9.24306 16.7001 9.12811Z" fill="url(#paint1_linear_4169_2501)"/>
<path d="M58.3781 10.6102C58.9812 10.6102 59.4683 10.8189 59.8394 11.2364C60.2105 11.6308 60.3961 12.1295 60.3961 12.7325V25.3276C60.3961 27.2528 59.9786 28.9576 59.1436 30.4421C58.3317 31.9266 57.2067 33.0864 55.7686 33.9214C54.3305 34.7564 52.6605 35.174 50.7585 35.174C48.8564 35.174 47.1748 34.7564 45.7135 33.9214C44.2754 33.0864 43.1388 31.9266 42.3038 30.4421C41.4919 28.9576 41.086 27.2528 41.086 25.3276V12.7325C41.086 12.1295 41.2948 11.6308 41.7123 11.2364C42.1298 10.8189 42.6633 10.6102 43.3128 10.6102C43.8463 10.6102 44.3218 10.8189 44.7393 11.2364C45.18 11.6308 45.4004 12.1295 45.4004 12.7325V25.3276C45.4004 26.4873 45.6439 27.4963 46.131 28.3546C46.6413 29.1896 47.3024 29.8391 48.1142 30.303C48.9492 30.7669 49.8307 30.9988 50.7585 30.9988C51.7559 30.9988 52.6837 30.7669 53.5419 30.303C54.4001 29.8391 55.096 29.1896 55.6295 28.3546C56.163 27.4963 56.4297 26.4873 56.4297 25.3276V12.7325C56.4297 12.1295 56.6037 11.6308 56.9516 11.2364C57.2995 10.8189 57.775 10.6102 58.3781 10.6102ZM72.8547 16.0379C74.1768 16.0379 75.325 16.177 76.2992 16.4554C77.2966 16.7337 78.062 17.128 78.5955 17.6383C79.1522 18.1254 79.4305 18.7169 79.4305 19.4128C79.4305 19.8767 79.2914 20.3174 79.013 20.7349C78.7347 21.1292 78.3288 21.3264 77.7953 21.3264C77.4242 21.3264 77.111 21.28 76.8559 21.1872C76.6239 21.0712 76.4152 20.9321 76.2296 20.7697C76.044 20.6073 75.8237 20.4566 75.5685 20.3174C75.3366 20.1782 74.977 20.0738 74.4899 20.0043C74.026 19.9115 73.6781 19.8651 73.4462 19.8651C72.2632 19.8651 71.2542 20.1202 70.4192 20.6305C69.6073 21.1408 68.9811 21.8367 68.5404 22.7181C68.0996 23.5763 67.8793 24.5737 67.8793 25.7103C67.8793 26.8237 68.0996 27.8211 68.5404 28.7025C69.0043 29.5607 69.6305 30.245 70.4192 30.7553C71.231 31.2656 72.1588 31.5207 73.2026 31.5207C73.7825 31.5207 74.2812 31.4859 74.6987 31.4163C75.1162 31.3467 75.4641 31.2424 75.7425 31.1032C76.0672 30.9176 76.3572 30.7205 76.6123 30.5117C76.8675 30.303 77.2502 30.1986 77.7605 30.1986C78.3636 30.1986 78.8275 30.3957 79.1522 30.7901C79.4769 31.1612 79.6393 31.6251 79.6393 32.1818C79.6393 32.7617 79.3146 33.2951 78.6651 33.7822C78.0156 34.2462 77.1574 34.6289 76.0904 34.9304C75.0466 35.2088 73.9101 35.3479 72.6807 35.3479C70.8483 35.3479 69.2594 34.9304 67.9141 34.0954C66.5688 33.2372 65.525 32.0774 64.7827 30.6161C64.0637 29.1548 63.7041 27.5195 63.7041 25.7103C63.7041 23.8083 64.0869 22.1382 64.8523 20.7001C65.641 19.2388 66.7195 18.1022 68.0881 17.2904C69.4798 16.4554 71.0686 16.0379 72.8547 16.0379ZM91.7309 16.0379C93.401 16.0379 94.6651 16.3974 95.5234 17.1164C96.4048 17.8355 97.0078 18.7981 97.3326 20.0043C97.6573 21.1872 97.8197 22.5093 97.8197 23.9706V32.8776C97.8197 33.4807 97.6225 33.991 97.2282 34.4085C96.8339 34.8028 96.3352 35 95.7321 35C95.129 35 94.6303 34.8028 94.236 34.4085C93.8417 33.991 93.6445 33.4807 93.6445 32.8776V23.9706C93.6445 23.2052 93.5518 22.5209 93.3662 21.9179C93.1806 21.2916 92.8443 20.7929 92.3572 20.4218C91.8701 20.0506 91.1742 19.8651 90.2696 19.8651C89.3882 19.8651 88.6344 20.0506 88.0081 20.4218C87.3818 20.7929 86.9063 21.2916 86.5816 21.9179C86.28 22.5209 86.1293 23.2052 86.1293 23.9706V32.8776C86.1293 33.4807 85.9321 33.991 85.5378 34.4085C85.1435 34.8028 84.6448 35 84.0417 35C83.4386 35 82.9399 34.8028 82.5456 34.4085C82.1513 33.991 81.9541 33.4807 81.9541 32.8776V11.3756C81.9541 10.7725 82.1513 10.2738 82.5456 9.87951C82.9399 9.462 83.4386 9.25324 84.0417 9.25324C84.6448 9.25324 85.1435 9.462 85.5378 9.87951C85.9321 10.2738 86.1293 10.7725 86.1293 11.3756V20.0043L85.6074 19.8999C85.8161 19.5056 86.1061 19.088 86.4772 18.6473C86.8483 18.1834 87.3006 17.7543 87.8341 17.36C88.3676 16.9657 88.9591 16.6525 89.6086 16.4206C90.258 16.1654 90.9655 16.0379 91.7309 16.0379ZM110.413 35.3479C108.441 35.3479 106.724 34.942 105.263 34.1302C103.825 33.2951 102.712 32.1702 101.923 30.7553C101.158 29.3404 100.775 27.7399 100.775 25.9538C100.775 23.8663 101.192 22.0918 102.027 20.6305C102.886 19.146 103.999 18.0095 105.368 17.2208C106.736 16.4322 108.186 16.0379 109.717 16.0379C110.9 16.0379 112.013 16.2814 113.057 16.7685C114.124 17.2556 115.063 17.9283 115.875 18.7865C116.687 19.6215 117.325 20.5957 117.789 21.7091C118.276 22.8225 118.519 24.0054 118.519 25.258C118.496 25.8147 118.276 26.267 117.858 26.6149C117.441 26.9628 116.954 27.1368 116.397 27.1368H103.106L102.062 23.6575H114.831L114.066 24.3534V23.414C114.019 22.7413 113.776 22.1382 113.335 21.6047C112.918 21.0712 112.384 20.6537 111.735 20.3522C111.108 20.0274 110.436 19.8651 109.717 19.8651C109.021 19.8651 108.371 19.9579 107.768 20.1434C107.165 20.329 106.643 20.6421 106.203 21.0828C105.762 21.5235 105.414 22.115 105.159 22.8573C104.904 23.5995 104.776 24.5389 104.776 25.6755C104.776 26.928 105.031 27.995 105.542 28.8764C106.075 29.7347 106.748 30.3957 107.56 30.8596C108.395 31.3004 109.276 31.5207 110.204 31.5207C111.062 31.5207 111.746 31.4511 112.257 31.312C112.767 31.1728 113.173 31.0104 113.474 30.8248C113.799 30.6161 114.089 30.4421 114.344 30.303C114.762 30.0942 115.156 29.9898 115.527 29.9898C116.037 29.9898 116.455 30.1638 116.78 30.5117C117.128 30.8596 117.302 31.2656 117.302 31.7295C117.302 32.3557 116.977 32.924 116.327 33.4343C115.724 33.9446 114.878 34.3969 113.787 34.7912C112.697 35.1624 111.572 35.3479 110.413 35.3479ZM122.136 16.3858C122.577 16.3858 122.983 16.5018 123.354 16.7337C123.725 16.9425 124.004 17.2672 124.189 17.7079L129.304 29.3983L128.538 29.7463L133.757 17.7427C134.152 16.8149 134.766 16.3742 135.601 16.4206C136.181 16.4206 136.645 16.6061 136.993 16.9773C137.364 17.3252 137.55 17.7659 137.55 18.2994C137.55 18.4618 137.515 18.6357 137.445 18.8213C137.399 19.0069 137.341 19.1808 137.271 19.3432L130.765 33.6779C130.394 34.5129 129.802 34.9536 128.991 35C128.55 35.0696 128.121 34.9884 127.703 34.7564C127.309 34.5245 127.007 34.165 126.799 33.6779L120.327 19.3432C120.281 19.2272 120.223 19.0764 120.153 18.8909C120.107 18.7053 120.084 18.485 120.084 18.2298C120.084 17.8123 120.269 17.4064 120.64 17.0121C121.011 16.5945 121.51 16.3858 122.136 16.3858ZM155.314 16.0379C155.917 16.0379 156.416 16.235 156.81 16.6293C157.204 17.0237 157.401 17.534 157.401 18.1602V32.8776C157.401 33.4807 157.204 33.991 156.81 34.4085C156.416 34.8028 155.917 35 155.314 35C154.711 35 154.212 34.8028 153.818 34.4085C153.423 33.991 153.226 33.4807 153.226 32.8776V31.1728L153.992 31.4859C153.992 31.7875 153.829 32.1586 153.505 32.5993C153.18 33.0168 152.739 33.4343 152.183 33.8518C151.626 34.2693 150.965 34.6289 150.199 34.9304C149.457 35.2088 148.645 35.3479 147.764 35.3479C146.163 35.3479 144.714 34.942 143.415 34.1302C142.116 33.2951 141.084 32.1586 140.318 30.7205C139.576 29.2592 139.205 27.5891 139.205 25.7103C139.205 23.8083 139.576 22.1382 140.318 20.7001C141.084 19.2388 142.104 18.1022 143.38 17.2904C144.656 16.4554 146.071 16.0379 147.625 16.0379C148.622 16.0379 149.538 16.1886 150.373 16.4902C151.208 16.7917 151.927 17.1744 152.53 17.6383C153.157 18.1022 153.632 18.5777 153.957 19.0648C154.305 19.5287 154.479 19.9231 154.479 20.2478L153.226 20.7001V18.1602C153.226 17.5572 153.423 17.0585 153.818 16.6641C154.212 16.2466 154.711 16.0379 155.314 16.0379ZM148.286 31.5207C149.306 31.5207 150.199 31.2656 150.965 30.7553C151.73 30.245 152.322 29.5491 152.739 28.6677C153.18 27.7863 153.4 26.8005 153.4 25.7103C153.4 24.5969 153.18 23.5995 152.739 22.7181C152.322 21.8367 151.73 21.1408 150.965 20.6305C150.199 20.1202 149.306 19.8651 148.286 19.8651C147.288 19.8651 146.407 20.1202 145.641 20.6305C144.876 21.1408 144.273 21.8367 143.832 22.7181C143.415 23.5995 143.206 24.5969 143.206 25.7103C143.206 26.8005 143.415 27.7863 143.832 28.6677C144.273 29.5491 144.876 30.245 145.641 30.7553C146.407 31.2656 147.288 31.5207 148.286 31.5207Z" fill="url(#paint2_linear_4169_2501)"/>
<defs>
<linearGradient id="paint0_linear_4169_2501" x1="16.9111" y1="3.68359" x2="16.9111" y2="10.914" gradientUnits="userSpaceOnUse">
<stop stop-color="#FFCB3D"/>
<stop offset="1" stop-color="#FAA200"/>
</linearGradient>
<linearGradient id="paint1_linear_4169_2501" x1="16.9073" y1="9.11914" x2="16.9073" y2="13.9924" gradientUnits="userSpaceOnUse">
<stop stop-color="#FFCB3D"/>
<stop offset="1" stop-color="#FAA200"/>
</linearGradient>
<linearGradient id="paint2_linear_4169_2501" x1="99.4766" y1="21.5573" x2="99.4766" y2="34.4" gradientUnits="userSpaceOnUse">
<stop stop-color="#3B90FF"/>
<stop offset="1" stop-color="#0062F6"/>
</linearGradient>
</defs>
</svg>
