<svg width="50" height="50" viewBox="0 0 50 50" fill="none" xmlns="http://www.w3.org/2000/svg">
<path d="M26.041 36.0837C27.7299 35.1393 29.4334 34.4587 31.1514 34.0421C32.8695 33.6254 34.6382 33.4157 36.4577 33.4129C37.7077 33.4129 38.8313 33.4907 39.8285 33.6462C40.8257 33.8018 41.7056 34.0073 42.4681 34.2629C42.7875 34.3962 43.0813 34.3761 43.3493 34.2025C43.6174 34.0289 43.7507 33.7553 43.7493 33.3816V14.6004C43.7493 14.3601 43.6827 14.1462 43.5493 13.9587C43.416 13.7726 43.1889 13.6129 42.8681 13.4796C41.7223 13.0726 40.6799 12.7948 39.741 12.6462C38.8021 12.4976 37.7077 12.4219 36.4577 12.4191C34.6382 12.4191 32.8237 12.6872 31.0139 13.2233C29.2028 13.7608 27.5452 14.5664 26.041 15.64V36.0837ZM24.0993 38.3275C23.8257 38.2469 23.5646 38.1428 23.316 38.015C21.8021 37.1886 20.2257 36.5622 18.5868 36.1358C16.948 35.7094 15.266 35.4976 13.541 35.5004C12.4577 35.5004 11.3924 35.5907 10.3452 35.7712C9.29935 35.9532 8.28129 36.2448 7.29102 36.6462C6.53546 36.9476 5.82574 36.8566 5.16185 36.3733C4.49796 35.89 4.16602 35.2212 4.16602 34.3671V14.2316C4.16602 13.7164 4.30143 13.2379 4.57227 12.7962C4.8431 12.3546 5.22296 12.0476 5.71185 11.8754C6.94379 11.3434 8.21879 10.9546 9.53685 10.7087C10.8549 10.4629 12.1896 10.3393 13.541 10.3379C15.5827 10.3379 17.573 10.6316 19.5118 11.2191C21.4535 11.8066 23.2827 12.6608 24.9993 13.7816C26.7174 12.6608 28.5466 11.8066 30.4868 11.2191C32.4271 10.6316 34.4174 10.3379 36.4577 10.3379C37.8091 10.3379 39.1438 10.4615 40.4618 10.7087C41.7813 10.9546 43.0563 11.3434 44.2868 11.8754C44.7757 12.049 45.1556 12.3559 45.4264 12.7962C45.6973 13.2365 45.8327 13.715 45.8327 14.2316V34.3671C45.8327 35.2198 45.4743 35.8747 44.7577 36.3316C44.0396 36.7872 43.2757 36.8643 42.466 36.5629C41.5035 36.1879 40.5188 35.9171 39.5118 35.7504C38.5063 35.5823 37.4882 35.4983 36.4577 35.4983C34.7355 35.4983 33.0542 35.7108 31.4139 36.1358C29.7737 36.5608 28.1966 37.1865 26.6827 38.0129C26.4327 38.1421 26.1716 38.2469 25.8993 38.3275C25.6257 38.4094 25.3257 38.4504 24.9993 38.4504C24.673 38.4504 24.373 38.4094 24.0993 38.3275ZM28.9264 18.6421C28.9264 18.4893 28.9792 18.3351 29.0848 18.1796C29.1903 18.024 29.3153 17.9073 29.4598 17.8296C30.5195 17.349 31.6396 16.9809 32.8202 16.7254C34.0007 16.4726 35.2132 16.3462 36.4577 16.3462C37.1243 16.3462 37.7563 16.383 38.3535 16.4566C38.9507 16.5303 39.566 16.6365 40.1993 16.7754C40.3785 16.8171 40.5341 16.9108 40.666 17.0566C40.7993 17.2011 40.866 17.3796 40.866 17.5921C40.866 17.9421 40.7618 18.1962 40.5535 18.3546C40.3452 18.5129 40.066 18.549 39.716 18.4629C39.2021 18.3587 38.6764 18.2872 38.1389 18.2483C37.6 18.2094 37.0396 18.19 36.4577 18.19C35.341 18.19 34.2487 18.2969 33.1806 18.5108C32.1112 18.7247 31.0973 19.0233 30.1389 19.4066C29.782 19.5441 29.4903 19.5407 29.2639 19.3962C29.0375 19.2518 28.925 19.0004 28.9264 18.6421ZM28.9264 29.94C28.9264 29.7872 28.9792 29.6268 29.0848 29.4587C29.1903 29.2879 29.3153 29.1643 29.4598 29.0879C30.4667 28.6073 31.5868 28.2462 32.8202 28.0046C34.0535 27.7643 35.266 27.6441 36.4577 27.6441C37.1243 27.6441 37.7563 27.6809 38.3535 27.7546C38.9507 27.8282 39.566 27.9344 40.1993 28.0733C40.3785 28.115 40.5341 28.2087 40.666 28.3546C40.7993 28.499 40.866 28.6775 40.866 28.89C40.866 29.24 40.7618 29.4941 40.5535 29.6525C40.3452 29.8108 40.066 29.8469 39.716 29.7608C39.2021 29.6566 38.6764 29.5851 38.1389 29.5462C37.6 29.5073 37.0396 29.4879 36.4577 29.4879C35.3688 29.4879 34.2966 29.599 33.241 29.8212C32.1855 30.0448 31.1785 30.3622 30.2202 30.7733C29.8618 30.9372 29.5563 30.9351 29.3035 30.7671C29.0507 30.599 28.925 30.3233 28.9264 29.94ZM28.9264 24.3316C28.9264 24.1789 28.9792 24.0247 29.0848 23.8691C29.1903 23.7136 29.3153 23.5969 29.4598 23.5191C30.5195 23.0372 31.6396 22.6691 32.8202 22.415C34.0007 22.1622 35.2132 22.0358 36.4577 22.0358C37.1243 22.0358 37.7563 22.0726 38.3535 22.1462C38.9507 22.2198 39.566 22.3261 40.1993 22.465C40.3785 22.5066 40.5341 22.5997 40.666 22.7441C40.7993 22.8886 40.866 23.0678 40.866 23.2816C40.866 23.6316 40.7618 23.8858 40.5535 24.0441C40.3452 24.2025 40.066 24.2379 39.716 24.1504C39.2021 24.0462 38.6764 23.9754 38.1389 23.9379C37.6 23.899 37.0396 23.8796 36.4577 23.8796C35.341 23.8796 34.2487 23.9865 33.1806 24.2004C32.1112 24.4129 31.0973 24.7115 30.1389 25.0962C29.782 25.2323 29.4903 25.2289 29.2639 25.0858C29.0389 24.94 28.9264 24.6886 28.9264 24.3316Z" fill="#43B75D"/>
</svg>
