<svg width="40" height="40" viewBox="0 0 40 40" fill="none" xmlns="http://www.w3.org/2000/svg">
<path fill-rule="evenodd" clip-rule="evenodd" d="M20.0008 22.3576L29.4292 31.7859C29.7435 32.0895 30.1645 32.2575 30.6015 32.2537C31.0385 32.2499 31.4565 32.0746 31.7655 31.7656C32.0746 31.4566 32.2498 31.0386 32.2536 30.6016C32.2574 30.1646 32.0894 29.7436 31.7858 29.4292L22.3575 20.0009L31.7858 10.5726C32.0894 10.2582 32.2574 9.83723 32.2536 9.40023C32.2498 8.96324 32.0746 8.54522 31.7655 8.2362C31.4565 7.92719 31.0385 7.75191 30.6015 7.74811C30.1645 7.74431 29.7435 7.9123 29.4292 8.2159L20.0008 17.6442L10.5725 8.2159C10.2568 7.91981 9.8382 7.75818 9.4054 7.7652C8.97259 7.77223 8.5595 7.94737 8.25353 8.25356C7.94756 8.55974 7.77271 8.97296 7.76599 9.40577C7.75927 9.83858 7.9212 10.257 8.21751 10.5726L17.6442 20.0009L8.21584 29.4292C8.05666 29.583 7.92969 29.7669 7.84234 29.9702C7.75499 30.1736 7.70902 30.3923 7.70709 30.6136C7.70517 30.8349 7.74734 31.0543 7.83114 31.2592C7.91494 31.464 8.0387 31.6501 8.19519 31.8066C8.35167 31.963 8.53776 32.0868 8.74259 32.1706C8.94742 32.2544 9.16688 32.2966 9.38818 32.2947C9.60948 32.2927 9.82818 32.2467 10.0315 32.1594C10.2349 32.0721 10.4188 31.9451 10.5725 31.7859L20.0008 22.3576Z" fill="#EE443F"/>
</svg>
