<svg width="30" height="30" viewBox="0 0 30 30" fill="none" xmlns="http://www.w3.org/2000/svg">
<path fill-rule="evenodd" clip-rule="evenodd" d="M14.9995 17.652L21.6283 24.2808C21.98 24.6325 22.4571 24.8301 22.9545 24.8301C23.4519 24.8301 23.929 24.6325 24.2808 24.2808C24.6325 23.929 24.8301 23.452 24.8301 22.9545C24.8301 22.4571 24.6325 21.98 24.2808 21.6283L17.6495 14.9995L24.2795 8.37078C24.4536 8.19661 24.5917 7.98986 24.6858 7.76234C24.78 7.53481 24.8285 7.29096 24.8284 7.04471C24.8284 6.79846 24.7798 6.55463 24.6855 6.32715C24.5912 6.09967 24.453 5.89299 24.2789 5.7189C24.1047 5.54482 23.898 5.40674 23.6704 5.31256C23.4429 5.21838 23.1991 5.16994 22.9528 5.16999C22.7066 5.17005 22.4627 5.21861 22.2353 5.3129C22.0078 5.40719 21.8011 5.54536 21.627 5.71953L14.9995 12.3483L8.37076 5.71953C8.19788 5.54037 7.99105 5.39743 7.76234 5.29906C7.53363 5.20068 7.28761 5.14884 7.03865 5.14656C6.7897 5.14428 6.54278 5.19161 6.3123 5.28578C6.08183 5.37994 5.87242 5.51907 5.69628 5.69503C5.52015 5.871 5.38083 6.08028 5.28645 6.31067C5.19206 6.54105 5.1445 6.78793 5.14655 7.03689C5.14859 7.28585 5.2002 7.53191 5.29836 7.76071C5.39651 7.98952 5.53926 8.19648 5.71826 8.36953L12.3495 14.9995L5.71951 21.6295C5.54051 21.8026 5.39777 22.0095 5.29961 22.2383C5.20145 22.4671 5.14984 22.7132 5.1478 22.9622C5.14575 23.2111 5.19331 23.458 5.2877 23.6884C5.38208 23.9188 5.5214 24.1281 5.69753 24.304C5.87367 24.48 6.08308 24.6191 6.31355 24.7133C6.54403 24.8074 6.79095 24.8548 7.0399 24.8525C7.28886 24.8502 7.53488 24.7984 7.76359 24.7C7.9923 24.6016 8.19913 24.4587 8.37201 24.2795L14.9995 17.652Z" fill="#03173C"/>
</svg>
