<svg width="78" height="14" viewBox="0 0 78 14" fill="none" xmlns="http://www.w3.org/2000/svg">
<path d="M6.54349 1.40498C6.68718 0.962755 7.31282 0.962755 7.45651 1.40498L8.46383 4.50521C8.52809 4.70298 8.71239 4.83688 8.92034 4.83688H12.1801C12.6451 4.83688 12.8384 5.4319 12.4622 5.70521L9.82504 7.62125C9.6568 7.74348 9.58641 7.96014 9.65067 8.15791L10.658 11.2581C10.8017 11.7004 10.2955 12.0681 9.91934 11.7948L7.28214 9.87875C7.1139 9.75652 6.8861 9.75652 6.71786 9.87875L4.08065 11.7948C3.70447 12.0681 3.19832 11.7004 3.34201 11.2581L4.34933 8.15791C4.41359 7.96014 4.3432 7.74348 4.17496 7.62125L1.53775 5.70521C1.16157 5.4319 1.3549 4.83688 1.81989 4.83688H5.07966C5.28761 4.83688 5.47191 4.70298 5.53617 4.50521L6.54349 1.40498Z" fill="#FAA200"/>
<path d="M22.5435 1.40498C22.6872 0.962755 23.3128 0.962755 23.4565 1.40498L24.4638 4.50521C24.5281 4.70298 24.7124 4.83688 24.9203 4.83688H28.1801C28.6451 4.83688 28.8384 5.4319 28.4622 5.70521L25.825 7.62125C25.6568 7.74348 25.5864 7.96014 25.6507 8.15791L26.658 11.2581C26.8017 11.7004 26.2955 12.0681 25.9193 11.7948L23.2821 9.87875C23.1139 9.75652 22.8861 9.75652 22.7179 9.87875L20.0807 11.7948C19.7045 12.0681 19.1983 11.7004 19.342 11.2581L20.3493 8.15791C20.4136 7.96014 20.3432 7.74348 20.175 7.62125L17.5378 5.70521C17.1616 5.4319 17.3549 4.83688 17.8199 4.83688H21.0797C21.2876 4.83688 21.4719 4.70298 21.5362 4.50521L22.5435 1.40498Z" fill="#FAA200"/>
<path d="M38.5435 1.40498C38.6872 0.962755 39.3128 0.962755 39.4565 1.40498L40.4638 4.50521C40.5281 4.70298 40.7124 4.83688 40.9203 4.83688H44.1801C44.6451 4.83688 44.8384 5.4319 44.4622 5.70521L41.825 7.62125C41.6568 7.74348 41.5864 7.96014 41.6507 8.15791L42.658 11.2581C42.8017 11.7004 42.2955 12.0681 41.9193 11.7948L39.2821 9.87875C39.1139 9.75652 38.8861 9.75652 38.7179 9.87875L36.0807 11.7948C35.7045 12.0681 35.1983 11.7004 35.342 11.2581L36.3493 8.15791C36.4136 7.96014 36.3432 7.74348 36.175 7.62125L33.5378 5.70521C33.1616 5.4319 33.3549 4.83688 33.8199 4.83688H37.0797C37.2876 4.83688 37.4719 4.70298 37.5362 4.50521L38.5435 1.40498Z" fill="#FAA200"/>
<path d="M54.5435 1.40498C54.6872 0.962755 55.3128 0.962755 55.4565 1.40498L56.4638 4.50521C56.5281 4.70298 56.7124 4.83688 56.9203 4.83688H60.1801C60.6451 4.83688 60.8384 5.4319 60.4622 5.70521L57.825 7.62125C57.6568 7.74348 57.5864 7.96014 57.6507 8.15791L58.658 11.2581C58.8017 11.7004 58.2955 12.0681 57.9193 11.7948L55.2821 9.87875C55.1139 9.75652 54.8861 9.75652 54.7179 9.87875L52.0807 11.7948C51.7045 12.0681 51.1983 11.7004 51.342 11.2581L52.3493 8.15791C52.4136 7.96014 52.3432 7.74348 52.175 7.62125L49.5378 5.70521C49.1616 5.4319 49.3549 4.83688 49.8199 4.83688H53.0797C53.2876 4.83688 53.4719 4.70298 53.5362 4.50521L54.5435 1.40498Z" fill="#FAA200"/>
<path d="M70.5435 1.40498C70.6872 0.962755 71.3128 0.962755 71.4565 1.40498L72.4638 4.50521C72.5281 4.70298 72.7124 4.83688 72.9203 4.83688H76.1801C76.6451 4.83688 76.8384 5.4319 76.4622 5.70521L73.825 7.62125C73.6568 7.74348 73.5864 7.96014 73.6507 8.15791L74.658 11.2581C74.8017 11.7004 74.2955 12.0681 73.9193 11.7948L71.2821 9.87875C71.1139 9.75652 70.8861 9.75652 70.7179 9.87875L68.0807 11.7948C67.7045 12.0681 67.1983 11.7004 67.342 11.2581L68.3493 8.15791C68.4136 7.96014 68.3432 7.74348 68.175 7.62125L65.5378 5.70521C65.1616 5.4319 65.3549 4.83688 65.8199 4.83688H69.0797C69.2876 4.83688 69.4719 4.70298 69.5362 4.50521L70.5435 1.40498Z" fill="#FAA200"/>
</svg>
