<svg width="907" height="102" viewBox="0 0 907 102" fill="none" xmlns="http://www.w3.org/2000/svg">
<rect x="46.5" width="60" height="60" rx="30" fill="#0062F6"/>
<path d="M64.4688 32.1875L72.125 39.8438L89.625 22.3438" stroke="white" stroke-width="3" stroke-linecap="round" stroke-linejoin="round"/>
<line x1="127.5" y1="29" x2="399.5" y2="29" stroke="#0084FF" stroke-width="2" stroke-linecap="round"/>
<rect x="420.5" width="60" height="60" rx="30" fill="#0062F6"/>
<path d="M438.469 32.1875L446.125 39.8438L463.625 22.3438" stroke="white" stroke-width="3" stroke-linecap="round" stroke-linejoin="round"/>
<line x1="501.5" y1="29" x2="773.5" y2="29" stroke="#0062F6" stroke-width="2" stroke-linecap="round"/>
<rect x="794.5" width="60" height="60" rx="30" fill="#0062F6"/>
<path d="M824.512 27.684C825.147 27.7027 825.753 27.6093 826.332 27.404C826.911 27.18 827.377 26.8347 827.732 26.368C828.105 25.8827 828.292 25.2667 828.292 24.52C828.292 23.9973 828.143 23.54 827.844 23.148C827.545 22.756 827.107 22.4573 826.528 22.252C825.949 22.028 825.277 21.916 824.512 21.916C823.541 21.916 822.739 22.1307 822.104 22.56C821.488 22.9893 821.124 23.568 821.012 24.296L817.932 24.128C818.044 23.176 818.399 22.3267 818.996 21.58C819.612 20.8147 820.396 20.2267 821.348 19.816C822.3 19.3867 823.364 19.172 824.54 19.172C825.884 19.172 827.069 19.396 828.096 19.844C829.123 20.2733 829.925 20.88 830.504 21.664C831.083 22.4293 831.372 23.3253 831.372 24.352C831.372 25.584 830.98 26.592 830.196 27.376C829.412 28.16 828.245 28.6827 826.696 28.944L826.724 28.552C827.844 28.7573 828.805 29.112 829.608 29.616C830.411 30.12 831.017 30.7453 831.428 31.492C831.839 32.2387 832.044 33.088 832.044 34.04C832.044 35.1973 831.727 36.224 831.092 37.12C830.457 38.016 829.571 38.716 828.432 39.22C827.312 39.7053 826.015 39.948 824.54 39.948C823.177 39.948 821.955 39.7053 820.872 39.22C819.808 38.7347 818.959 38.0533 818.324 37.176C817.708 36.2987 817.372 35.3 817.316 34.18L820.368 34.012C820.461 35.0573 820.919 35.8507 821.74 36.392C822.58 36.9333 823.513 37.204 824.54 37.204C825.305 37.204 826.024 37.0827 826.696 36.84C827.387 36.5787 827.937 36.196 828.348 35.692C828.777 35.1693 828.992 34.5067 828.992 33.704C828.992 32.92 828.777 32.2667 828.348 31.744C827.919 31.2027 827.359 30.8107 826.668 30.568C825.996 30.3067 825.277 30.1853 824.512 30.204L822.944 30.232V27.656L824.512 27.684Z" fill="white"/>
<path d="M3.984 89.36C4.128 90.08 4.384 90.712 4.752 91.256C5.136 91.8 5.64 92.216 6.264 92.504C6.888 92.792 7.608 92.936 8.424 92.936C9.112 92.936 9.704 92.848 10.2 92.672C10.712 92.496 11.104 92.232 11.376 91.88C11.648 91.528 11.784 91.104 11.784 90.608C11.784 89.824 11.424 89.176 10.704 88.664C10 88.136 8.84 87.672 7.224 87.272C5.544 86.856 4.2 86.256 3.192 85.472C2.2 84.688 1.704 83.648 1.704 82.352C1.704 81.392 1.952 80.552 2.448 79.832C2.944 79.112 3.624 78.56 4.488 78.176C5.368 77.776 6.384 77.576 7.536 77.576C8.752 77.576 9.832 77.816 10.776 78.296C11.72 78.76 12.472 79.408 13.032 80.24C13.592 81.056 13.944 82.008 14.088 83.096L11.472 83.24C11.376 82.568 11.152 81.984 10.8 81.488C10.448 80.976 9.984 80.584 9.408 80.312C8.848 80.04 8.208 79.904 7.488 79.904C6.56 79.904 5.8 80.128 5.208 80.576C4.616 81.024 4.328 81.624 4.344 82.376C4.344 82.936 4.528 83.4 4.896 83.768C5.28 84.12 5.728 84.4 6.24 84.608C6.752 84.8 7.44 85.016 8.304 85.256L8.664 85.352C10.44 85.816 11.84 86.464 12.864 87.296C13.904 88.112 14.424 89.152 14.424 90.416C14.424 91.44 14.144 92.32 13.584 93.056C13.024 93.792 12.272 94.352 11.328 94.736C10.4 95.104 9.384 95.288 8.28 95.288C7.016 95.288 5.872 95.056 4.848 94.592C3.84 94.112 3.032 93.432 2.424 92.552C1.816 91.672 1.464 90.656 1.368 89.504L3.984 89.36ZM25.8294 86.72C25.7174 85.936 25.3814 85.32 24.8214 84.872C24.2614 84.408 23.6134 84.176 22.8774 84.176C21.7734 84.176 20.9254 84.568 20.3334 85.352C19.7414 86.136 19.4454 87.232 19.4454 88.64C19.4454 90.048 19.7414 91.144 20.3334 91.928C20.9254 92.712 21.7734 93.104 22.8774 93.104C23.6614 93.104 24.3254 92.864 24.8694 92.384C25.4294 91.888 25.7814 91.208 25.9254 90.344L28.5414 90.488C28.4134 91.464 28.0774 92.32 27.5334 93.056C27.0054 93.776 26.3334 94.328 25.5174 94.712C24.7174 95.096 23.8374 95.288 22.8774 95.288C21.6614 95.288 20.5974 95.016 19.6854 94.472C18.7894 93.928 18.0934 93.16 17.5974 92.168C17.1014 91.16 16.8534 89.984 16.8534 88.64C16.8534 87.296 17.1014 86.128 17.5974 85.136C18.0934 84.128 18.7894 83.352 19.6854 82.808C20.5974 82.264 21.6614 81.992 22.8774 81.992C23.8054 81.992 24.6694 82.184 25.4694 82.568C26.2854 82.936 26.9494 83.464 27.4614 84.152C27.9894 84.84 28.3094 85.648 28.4214 86.576L25.8294 86.72ZM33.6426 77.96V85.112L33.2826 84.944C33.5386 83.952 34.0346 83.216 34.7706 82.736C35.5066 82.24 36.3786 81.992 37.3866 81.992C38.7626 81.992 39.8186 82.44 40.5546 83.336C41.2906 84.232 41.6586 85.392 41.6586 86.816V95H39.1626V87.68C39.1626 86.912 39.0826 86.28 38.9226 85.784C38.7626 85.272 38.4986 84.888 38.1306 84.632C37.7786 84.36 37.3066 84.224 36.7146 84.224C35.7546 84.224 35.0026 84.52 34.4586 85.112C33.9146 85.704 33.6426 86.56 33.6426 87.68V95H31.1466V77.96H33.6426ZM50.229 95.288C49.013 95.288 47.949 95.016 47.037 94.472C46.141 93.928 45.445 93.16 44.949 92.168C44.453 91.16 44.205 89.984 44.205 88.64C44.205 87.296 44.453 86.128 44.949 85.136C45.445 84.128 46.141 83.352 47.037 82.808C47.949 82.264 49.013 81.992 50.229 81.992C51.429 81.992 52.485 82.264 53.397 82.808C54.309 83.352 55.013 84.128 55.509 85.136C56.005 86.128 56.253 87.296 56.253 88.64C56.253 89.984 56.005 91.16 55.509 92.168C55.013 93.16 54.309 93.928 53.397 94.472C52.485 95.016 51.429 95.288 50.229 95.288ZM50.229 93.104C51.317 93.104 52.157 92.712 52.749 91.928C53.357 91.144 53.661 90.048 53.661 88.64C53.661 87.232 53.357 86.136 52.749 85.352C52.157 84.568 51.317 84.176 50.229 84.176C49.125 84.176 48.277 84.568 47.685 85.352C47.093 86.136 46.797 87.232 46.797 88.64C46.797 90.048 47.093 91.144 47.685 91.928C48.277 92.712 49.125 93.104 50.229 93.104ZM64.4321 95.288C63.2161 95.288 62.1521 95.016 61.2401 94.472C60.3441 93.928 59.6481 93.16 59.1521 92.168C58.6561 91.16 58.4081 89.984 58.4081 88.64C58.4081 87.296 58.6561 86.128 59.1521 85.136C59.6481 84.128 60.3441 83.352 61.2401 82.808C62.1521 82.264 63.2161 81.992 64.4321 81.992C65.6321 81.992 66.6881 82.264 67.6001 82.808C68.5121 83.352 69.2161 84.128 69.7121 85.136C70.2081 86.128 70.4561 87.296 70.4561 88.64C70.4561 89.984 70.2081 91.16 69.7121 92.168C69.2161 93.16 68.5121 93.928 67.6001 94.472C66.6881 95.016 65.6321 95.288 64.4321 95.288ZM64.4321 93.104C65.5201 93.104 66.3601 92.712 66.9521 91.928C67.5601 91.144 67.8641 90.048 67.8641 88.64C67.8641 87.232 67.5601 86.136 66.9521 85.352C66.3601 84.568 65.5201 84.176 64.4321 84.176C63.3281 84.176 62.4801 84.568 61.8881 85.352C61.2961 86.136 61.0001 87.232 61.0001 88.64C61.0001 90.048 61.2961 91.144 61.8881 91.928C62.4801 92.712 63.3281 93.104 64.4321 93.104ZM76.0673 77.96V92.096C76.0673 92.368 76.1313 92.576 76.2593 92.72C76.4033 92.864 76.6113 92.936 76.8833 92.936H77.9393V95H76.3553C75.5233 95 74.8513 94.744 74.3393 94.232C73.8273 93.72 73.5713 93.048 73.5713 92.216V77.96H76.0673ZM93.1031 77.96C94.3831 77.96 95.4871 78.168 96.4151 78.584C97.3431 79 98.0551 79.608 98.5511 80.408C99.0471 81.192 99.2951 82.136 99.2951 83.24C99.2951 84.344 99.0471 85.304 98.5511 86.12C98.0551 86.92 97.3431 87.536 96.4151 87.968C95.4871 88.384 94.3831 88.592 93.1031 88.592H89.3351V95H86.7911V77.96H93.1031ZM93.0551 86.24C94.2391 86.24 95.1351 85.992 95.7431 85.496C96.3511 84.984 96.6551 84.232 96.6551 83.24C96.6551 82.264 96.3511 81.536 95.7431 81.056C95.1351 80.56 94.2391 80.312 93.0551 80.312H89.3351V86.24H93.0551ZM104.466 82.28L104.562 85.712L104.37 85.544C104.514 84.408 104.842 83.584 105.354 83.072C105.866 82.544 106.602 82.28 107.562 82.28H108.786V84.344H107.538C106.898 84.344 106.362 84.464 105.93 84.704C105.498 84.944 105.178 85.304 104.97 85.784C104.778 86.248 104.682 86.84 104.682 87.56V95H102.186V82.28H104.466ZM115.995 95.288C114.779 95.288 113.715 95.016 112.803 94.472C111.907 93.928 111.211 93.16 110.715 92.168C110.219 91.16 109.971 89.984 109.971 88.64C109.971 87.296 110.219 86.128 110.715 85.136C111.211 84.128 111.907 83.352 112.803 82.808C113.715 82.264 114.779 81.992 115.995 81.992C117.195 81.992 118.251 82.264 119.163 82.808C120.075 83.352 120.779 84.128 121.275 85.136C121.771 86.128 122.019 87.296 122.019 88.64C122.019 89.984 121.771 91.16 121.275 92.168C120.779 93.16 120.075 93.928 119.163 94.472C118.251 95.016 117.195 95.288 115.995 95.288ZM115.995 93.104C117.083 93.104 117.923 92.712 118.515 91.928C119.123 91.144 119.427 90.048 119.427 88.64C119.427 87.232 119.123 86.136 118.515 85.352C117.923 84.568 117.083 84.176 115.995 84.176C114.891 84.176 114.043 84.568 113.451 85.352C112.859 86.136 112.563 87.232 112.563 88.64C112.563 90.048 112.859 91.144 113.451 91.928C114.043 92.712 114.891 93.104 115.995 93.104ZM126.286 81.68C126.286 80.496 126.59 79.584 127.198 78.944C127.822 78.288 128.758 77.96 130.006 77.96H132.142V80.024H130.174C129.758 80.024 129.422 80.176 129.166 80.48C128.91 80.768 128.782 81.168 128.782 81.68V95H126.286V81.68ZM124.534 82.424H131.974V84.488H124.534V82.424ZM137.518 82.28V95H135.022V82.28H137.518ZM137.59 77.96V80.384H134.998V77.96H137.59ZM143.989 77.96V92.096C143.989 92.368 144.053 92.576 144.181 92.72C144.325 92.864 144.533 92.936 144.805 92.936H145.861V95H144.277C143.445 95 142.773 94.744 142.261 94.232C141.749 93.72 141.493 93.048 141.493 92.216V77.96H143.989ZM147.635 88.64C147.635 87.296 147.883 86.128 148.379 85.136C148.875 84.128 149.579 83.352 150.491 82.808C151.403 82.264 152.459 81.992 153.659 81.992C154.699 81.992 155.635 82.224 156.467 82.688C157.315 83.152 157.995 83.872 158.507 84.848C159.035 85.824 159.323 87.04 159.371 88.496L159.395 89.36H150.251C150.347 90.56 150.691 91.488 151.283 92.144C151.875 92.8 152.667 93.128 153.659 93.128C154.299 93.128 154.883 92.96 155.411 92.624C155.939 92.272 156.331 91.792 156.587 91.184L159.203 91.376C158.835 92.56 158.139 93.512 157.115 94.232C156.107 94.936 154.955 95.288 153.659 95.288C152.459 95.288 151.403 95.016 150.491 94.472C149.579 93.928 148.875 93.16 148.379 92.168C147.883 91.16 147.635 89.984 147.635 88.64ZM156.755 87.44C156.595 86.304 156.235 85.472 155.675 84.944C155.115 84.416 154.443 84.152 153.659 84.152C152.731 84.152 151.979 84.44 151.403 85.016C150.827 85.592 150.459 86.4 150.299 87.44H156.755Z" fill="#0062F6"/>
<path d="M427.008 89.504C426.672 91.296 425.896 92.728 424.68 93.8C423.48 94.856 421.912 95.384 419.976 95.384C418.376 95.384 416.984 94.992 415.8 94.208C414.616 93.424 413.704 92.36 413.064 91.016C412.44 89.672 412.128 88.168 412.128 86.504C412.128 84.84 412.44 83.328 413.064 81.968C413.688 80.608 414.592 79.536 415.776 78.752C416.976 77.968 418.376 77.576 419.976 77.576C421.784 77.576 423.288 78.08 424.488 79.088C425.704 80.08 426.504 81.416 426.888 83.096L424.248 83.264C423.976 82.24 423.472 81.432 422.736 80.84C422 80.232 421.08 79.928 419.976 79.928C418.792 79.928 417.808 80.224 417.024 80.816C416.256 81.392 415.688 82.176 415.32 83.168C414.952 84.16 414.768 85.272 414.768 86.504C414.768 87.736 414.952 88.84 415.32 89.816C415.688 90.792 416.264 91.576 417.048 92.168C417.832 92.744 418.808 93.032 419.976 93.032C421.144 93.032 422.096 92.704 422.832 92.048C423.584 91.376 424.08 90.48 424.32 89.36L427.008 89.504ZM432.552 77.96V92.096C432.552 92.368 432.616 92.576 432.744 92.72C432.888 92.864 433.096 92.936 433.368 92.936H434.424V95H432.84C432.008 95 431.336 94.744 430.824 94.232C430.312 93.72 430.056 93.048 430.056 92.216V77.96H432.552ZM436.601 86.072C436.857 84.808 437.457 83.816 438.401 83.096C439.345 82.36 440.545 81.992 442.001 81.992C443.729 81.992 445.049 82.456 445.961 83.384C446.873 84.296 447.329 85.624 447.329 87.368V92.168C447.329 92.456 447.393 92.664 447.521 92.792C447.649 92.92 447.841 92.984 448.097 92.984H448.625V95H447.785H447.689C447.241 95 446.825 94.952 446.441 94.856C446.057 94.76 445.729 94.568 445.457 94.28C445.185 93.992 445.041 93.584 445.025 93.056C444.721 93.696 444.217 94.232 443.513 94.664C442.809 95.08 441.961 95.288 440.969 95.288C439.641 95.288 438.545 94.96 437.681 94.304C436.817 93.648 436.385 92.768 436.385 91.664C436.385 90.848 436.569 90.192 436.937 89.696C437.321 89.2 437.849 88.816 438.521 88.544C439.209 88.272 440.097 88.032 441.185 87.824L444.833 87.104C444.817 86.08 444.577 85.32 444.113 84.824C443.649 84.328 442.945 84.08 442.001 84.08C441.265 84.08 440.657 84.264 440.177 84.632C439.697 85 439.361 85.536 439.169 86.24L436.601 86.072ZM438.977 91.616C438.977 92.112 439.185 92.52 439.601 92.84C440.033 93.16 440.649 93.32 441.449 93.32C442.105 93.32 442.689 93.168 443.201 92.864C443.729 92.544 444.137 92.072 444.425 91.448C444.729 90.824 444.881 90.064 444.881 89.168V89.048L442.145 89.528L441.689 89.6C441.033 89.728 440.529 89.848 440.177 89.96C439.825 90.056 439.537 90.24 439.313 90.512C439.089 90.784 438.977 91.152 438.977 91.616ZM458.395 86.264C458.267 85.608 457.923 85.088 457.363 84.704C456.819 84.304 456.203 84.104 455.515 84.104C454.843 84.104 454.283 84.272 453.835 84.608C453.387 84.928 453.171 85.36 453.187 85.904C453.187 86.416 453.451 86.816 453.979 87.104C454.507 87.392 455.179 87.616 455.995 87.776C457.147 87.984 458.091 88.232 458.827 88.52C459.563 88.808 460.139 89.208 460.555 89.72C460.971 90.232 461.179 90.888 461.179 91.688C461.179 92.488 460.931 93.16 460.435 93.704C459.955 94.232 459.323 94.632 458.539 94.904C457.771 95.16 456.931 95.288 456.019 95.288C454.947 95.288 453.987 95.112 453.139 94.76C452.291 94.408 451.619 93.912 451.123 93.272C450.627 92.616 450.347 91.856 450.283 90.992L452.851 90.824C452.947 91.32 453.123 91.744 453.379 92.096C453.651 92.432 454.003 92.696 454.435 92.888C454.883 93.064 455.403 93.152 455.995 93.152C456.667 93.152 457.267 93.032 457.795 92.792C458.323 92.536 458.587 92.136 458.587 91.592C458.571 91.208 458.451 90.904 458.227 90.68C458.019 90.456 457.755 90.288 457.435 90.176C457.115 90.064 456.675 89.952 456.115 89.84C455.987 89.824 455.803 89.784 455.563 89.72C454.491 89.496 453.611 89.256 452.923 89C452.235 88.728 451.675 88.352 451.243 87.872C450.811 87.376 450.595 86.752 450.595 86C450.595 85.184 450.803 84.48 451.219 83.888C451.635 83.28 452.227 82.816 452.995 82.496C453.779 82.16 454.691 81.992 455.731 81.992C457.091 81.992 458.251 82.368 459.211 83.12C460.171 83.856 460.755 84.856 460.963 86.12L458.395 86.264ZM471.45 86.264C471.322 85.608 470.978 85.088 470.418 84.704C469.874 84.304 469.258 84.104 468.57 84.104C467.898 84.104 467.338 84.272 466.89 84.608C466.442 84.928 466.226 85.36 466.242 85.904C466.242 86.416 466.506 86.816 467.034 87.104C467.562 87.392 468.234 87.616 469.05 87.776C470.202 87.984 471.146 88.232 471.882 88.52C472.618 88.808 473.194 89.208 473.61 89.72C474.026 90.232 474.234 90.888 474.234 91.688C474.234 92.488 473.986 93.16 473.49 93.704C473.01 94.232 472.378 94.632 471.594 94.904C470.826 95.16 469.986 95.288 469.074 95.288C468.002 95.288 467.042 95.112 466.194 94.76C465.346 94.408 464.674 93.912 464.178 93.272C463.682 92.616 463.402 91.856 463.338 90.992L465.906 90.824C466.002 91.32 466.178 91.744 466.434 92.096C466.706 92.432 467.058 92.696 467.49 92.888C467.938 93.064 468.458 93.152 469.05 93.152C469.722 93.152 470.322 93.032 470.85 92.792C471.378 92.536 471.642 92.136 471.642 91.592C471.626 91.208 471.506 90.904 471.282 90.68C471.074 90.456 470.81 90.288 470.49 90.176C470.17 90.064 469.73 89.952 469.17 89.84C469.042 89.824 468.858 89.784 468.618 89.72C467.546 89.496 466.666 89.256 465.978 89C465.29 88.728 464.73 88.352 464.298 87.872C463.866 87.376 463.65 86.752 463.65 86C463.65 85.184 463.858 84.48 464.274 83.888C464.69 83.28 465.282 82.816 466.05 82.496C466.834 82.16 467.746 81.992 468.786 81.992C470.146 81.992 471.306 82.368 472.266 83.12C473.226 83.856 473.81 84.856 474.018 86.12L471.45 86.264ZM476.393 88.64C476.393 87.296 476.641 86.128 477.137 85.136C477.633 84.128 478.337 83.352 479.249 82.808C480.161 82.264 481.217 81.992 482.417 81.992C483.457 81.992 484.393 82.224 485.225 82.688C486.073 83.152 486.753 83.872 487.265 84.848C487.793 85.824 488.081 87.04 488.129 88.496L488.153 89.36H479.009C479.105 90.56 479.449 91.488 480.041 92.144C480.633 92.8 481.425 93.128 482.417 93.128C483.057 93.128 483.641 92.96 484.169 92.624C484.697 92.272 485.089 91.792 485.345 91.184L487.961 91.376C487.593 92.56 486.897 93.512 485.873 94.232C484.865 94.936 483.713 95.288 482.417 95.288C481.217 95.288 480.161 95.016 479.249 94.472C478.337 93.928 477.633 93.16 477.137 92.168C476.641 91.16 476.393 89.984 476.393 88.64ZM485.513 87.44C485.353 86.304 484.993 85.472 484.433 84.944C483.873 84.416 483.201 84.152 482.417 84.152C481.489 84.152 480.737 84.44 480.161 85.016C479.585 85.592 479.217 86.4 479.057 87.44H485.513ZM498.426 86.264C498.298 85.608 497.954 85.088 497.394 84.704C496.85 84.304 496.234 84.104 495.546 84.104C494.874 84.104 494.314 84.272 493.866 84.608C493.418 84.928 493.202 85.36 493.218 85.904C493.218 86.416 493.482 86.816 494.01 87.104C494.538 87.392 495.21 87.616 496.026 87.776C497.178 87.984 498.122 88.232 498.858 88.52C499.594 88.808 500.17 89.208 500.586 89.72C501.002 90.232 501.21 90.888 501.21 91.688C501.21 92.488 500.962 93.16 500.466 93.704C499.986 94.232 499.354 94.632 498.57 94.904C497.802 95.16 496.962 95.288 496.05 95.288C494.978 95.288 494.018 95.112 493.17 94.76C492.322 94.408 491.65 93.912 491.154 93.272C490.658 92.616 490.378 91.856 490.314 90.992L492.882 90.824C492.978 91.32 493.154 91.744 493.41 92.096C493.682 92.432 494.034 92.696 494.466 92.888C494.914 93.064 495.434 93.152 496.026 93.152C496.698 93.152 497.298 93.032 497.826 92.792C498.354 92.536 498.618 92.136 498.618 91.592C498.602 91.208 498.482 90.904 498.258 90.68C498.05 90.456 497.786 90.288 497.466 90.176C497.146 90.064 496.706 89.952 496.146 89.84C496.018 89.824 495.834 89.784 495.594 89.72C494.522 89.496 493.642 89.256 492.954 89C492.266 88.728 491.706 88.352 491.274 87.872C490.842 87.376 490.626 86.752 490.626 86C490.626 85.184 490.834 84.48 491.25 83.888C491.666 83.28 492.258 82.816 493.026 82.496C493.81 82.16 494.722 81.992 495.762 81.992C497.122 81.992 498.282 82.368 499.242 83.12C500.202 83.856 500.786 84.856 500.994 86.12L498.426 86.264Z" fill="#0062F6"/>
<path d="M764.104 77.96V80.312H754.288L755.632 78.944V86.744L754.288 85.52H763.672V87.824H754.288L755.632 86.6V95H753.088V77.96H764.104ZM766.353 88.64C766.353 87.296 766.601 86.128 767.097 85.136C767.593 84.128 768.297 83.352 769.209 82.808C770.121 82.264 771.177 81.992 772.377 81.992C773.417 81.992 774.353 82.224 775.185 82.688C776.033 83.152 776.713 83.872 777.225 84.848C777.753 85.824 778.041 87.04 778.089 88.496L778.113 89.36H768.969C769.065 90.56 769.409 91.488 770.001 92.144C770.593 92.8 771.385 93.128 772.377 93.128C773.017 93.128 773.601 92.96 774.129 92.624C774.657 92.272 775.049 91.792 775.305 91.184L777.921 91.376C777.553 92.56 776.857 93.512 775.833 94.232C774.825 94.936 773.673 95.288 772.377 95.288C771.177 95.288 770.121 95.016 769.209 94.472C768.297 93.928 767.593 93.16 767.097 92.168C766.601 91.16 766.353 89.984 766.353 88.64ZM775.473 87.44C775.313 86.304 774.953 85.472 774.393 84.944C773.833 84.416 773.161 84.152 772.377 84.152C771.449 84.152 770.697 84.44 770.121 85.016C769.545 85.592 769.177 86.4 769.017 87.44H775.473ZM780.275 88.64C780.275 87.296 780.523 86.128 781.019 85.136C781.515 84.128 782.219 83.352 783.131 82.808C784.043 82.264 785.099 81.992 786.299 81.992C787.339 81.992 788.275 82.224 789.107 82.688C789.955 83.152 790.635 83.872 791.147 84.848C791.675 85.824 791.963 87.04 792.011 88.496L792.035 89.36H782.891C782.987 90.56 783.331 91.488 783.923 92.144C784.515 92.8 785.307 93.128 786.299 93.128C786.939 93.128 787.523 92.96 788.051 92.624C788.579 92.272 788.971 91.792 789.227 91.184L791.843 91.376C791.475 92.56 790.779 93.512 789.755 94.232C788.747 94.936 787.595 95.288 786.299 95.288C785.099 95.288 784.043 95.016 783.131 94.472C782.219 93.928 781.515 93.16 781.019 92.168C780.523 91.16 780.275 89.984 780.275 88.64ZM789.395 87.44C789.235 86.304 788.875 85.472 788.315 84.944C787.755 84.416 787.083 84.152 786.299 84.152C785.371 84.152 784.619 84.44 784.043 85.016C783.467 85.592 783.099 86.4 782.939 87.44H789.395ZM802.961 89.36C803.105 90.08 803.361 90.712 803.729 91.256C804.113 91.8 804.617 92.216 805.241 92.504C805.865 92.792 806.585 92.936 807.401 92.936C808.089 92.936 808.681 92.848 809.177 92.672C809.689 92.496 810.081 92.232 810.353 91.88C810.625 91.528 810.761 91.104 810.761 90.608C810.761 89.824 810.401 89.176 809.681 88.664C808.977 88.136 807.817 87.672 806.201 87.272C804.521 86.856 803.177 86.256 802.169 85.472C801.177 84.688 800.681 83.648 800.681 82.352C800.681 81.392 800.929 80.552 801.425 79.832C801.921 79.112 802.601 78.56 803.465 78.176C804.345 77.776 805.361 77.576 806.513 77.576C807.729 77.576 808.809 77.816 809.753 78.296C810.697 78.76 811.449 79.408 812.009 80.24C812.569 81.056 812.921 82.008 813.065 83.096L810.449 83.24C810.353 82.568 810.129 81.984 809.777 81.488C809.425 80.976 808.961 80.584 808.385 80.312C807.825 80.04 807.185 79.904 806.465 79.904C805.537 79.904 804.777 80.128 804.185 80.576C803.593 81.024 803.305 81.624 803.321 82.376C803.321 82.936 803.505 83.4 803.873 83.768C804.257 84.12 804.705 84.4 805.217 84.608C805.729 84.8 806.417 85.016 807.281 85.256L807.641 85.352C809.417 85.816 810.817 86.464 811.841 87.296C812.881 88.112 813.401 89.152 813.401 90.416C813.401 91.44 813.121 92.32 812.561 93.056C812.001 93.792 811.249 94.352 810.305 94.736C809.377 95.104 808.361 95.288 807.257 95.288C805.993 95.288 804.849 95.056 803.825 94.592C802.817 94.112 802.009 93.432 801.401 92.552C800.793 91.672 800.441 90.656 800.345 89.504L802.961 89.36ZM819.595 79.4V91.376C819.595 91.888 819.715 92.28 819.955 92.552C820.211 92.808 820.587 92.936 821.083 92.936H822.955V95H820.867C819.635 95 818.699 94.688 818.059 94.064C817.419 93.44 817.099 92.544 817.099 91.376V79.4H819.595ZM822.979 82.28V84.344H815.179V82.28H822.979ZM828.02 82.28L828.116 85.712L827.924 85.544C828.068 84.408 828.396 83.584 828.908 83.072C829.42 82.544 830.156 82.28 831.116 82.28H832.34V84.344H831.092C830.452 84.344 829.916 84.464 829.484 84.704C829.052 84.944 828.732 85.304 828.524 85.784C828.332 86.248 828.236 86.84 828.236 87.56V95H825.74V82.28H828.02ZM843.486 95L843.462 91.712L843.75 91.952C843.542 93.088 843.07 93.928 842.334 94.472C841.598 95.016 840.718 95.288 839.694 95.288C838.334 95.288 837.286 94.84 836.55 93.944C835.814 93.048 835.446 91.888 835.446 90.464V82.28H837.942V89.696C837.942 90.48 838.022 91.128 838.182 91.64C838.358 92.136 838.614 92.52 838.95 92.792C839.302 93.048 839.766 93.176 840.342 93.176C841.254 93.176 841.982 92.88 842.526 92.288C843.07 91.68 843.342 90.816 843.342 89.696V82.28H845.838V95H843.486ZM857.806 86.72C857.694 85.936 857.358 85.32 856.798 84.872C856.238 84.408 855.59 84.176 854.854 84.176C853.75 84.176 852.902 84.568 852.31 85.352C851.718 86.136 851.422 87.232 851.422 88.64C851.422 90.048 851.718 91.144 852.31 91.928C852.902 92.712 853.75 93.104 854.854 93.104C855.638 93.104 856.302 92.864 856.846 92.384C857.406 91.888 857.758 91.208 857.902 90.344L860.518 90.488C860.39 91.464 860.054 92.32 859.51 93.056C858.982 93.776 858.31 94.328 857.494 94.712C856.694 95.096 855.814 95.288 854.854 95.288C853.638 95.288 852.574 95.016 851.662 94.472C850.766 93.928 850.07 93.16 849.574 92.168C849.078 91.16 848.83 89.984 848.83 88.64C848.83 87.296 849.078 86.128 849.574 85.136C850.07 84.128 850.766 83.352 851.662 82.808C852.574 82.264 853.638 81.992 854.854 81.992C855.782 81.992 856.646 82.184 857.446 82.568C858.262 82.936 858.926 83.464 859.438 84.152C859.966 84.84 860.286 85.648 860.398 86.576L857.806 86.72ZM866.377 79.4V91.376C866.377 91.888 866.497 92.28 866.737 92.552C866.993 92.808 867.369 92.936 867.865 92.936H869.737V95H867.649C866.417 95 865.481 94.688 864.841 94.064C864.201 93.44 863.881 92.544 863.881 91.376V79.4H866.377ZM869.761 82.28V84.344H861.961V82.28H869.761ZM880.682 95L880.658 91.712L880.946 91.952C880.738 93.088 880.266 93.928 879.53 94.472C878.794 95.016 877.914 95.288 876.89 95.288C875.53 95.288 874.482 94.84 873.746 93.944C873.01 93.048 872.642 91.888 872.642 90.464V82.28H875.138V89.696C875.138 90.48 875.218 91.128 875.378 91.64C875.554 92.136 875.81 92.52 876.146 92.792C876.498 93.048 876.962 93.176 877.538 93.176C878.45 93.176 879.178 92.88 879.722 92.288C880.266 91.68 880.538 90.816 880.538 89.696V82.28H883.034V95H880.682ZM889.145 82.28L889.241 85.712L889.049 85.544C889.193 84.408 889.521 83.584 890.033 83.072C890.545 82.544 891.281 82.28 892.241 82.28H893.465V84.344H892.217C891.577 84.344 891.041 84.464 890.609 84.704C890.177 84.944 889.857 85.304 889.649 85.784C889.457 86.248 889.361 86.84 889.361 87.56V95H886.865V82.28H889.145ZM894.65 88.64C894.65 87.296 894.898 86.128 895.394 85.136C895.89 84.128 896.594 83.352 897.506 82.808C898.418 82.264 899.474 81.992 900.674 81.992C901.714 81.992 902.65 82.224 903.482 82.688C904.33 83.152 905.01 83.872 905.522 84.848C906.05 85.824 906.338 87.04 906.386 88.496L906.41 89.36H897.266C897.362 90.56 897.706 91.488 898.298 92.144C898.89 92.8 899.682 93.128 900.674 93.128C901.314 93.128 901.898 92.96 902.426 92.624C902.954 92.272 903.346 91.792 903.602 91.184L906.218 91.376C905.85 92.56 905.154 93.512 904.13 94.232C903.122 94.936 901.97 95.288 900.674 95.288C899.474 95.288 898.418 95.016 897.506 94.472C896.594 93.928 895.89 93.16 895.394 92.168C894.898 91.16 894.65 89.984 894.65 88.64ZM903.77 87.44C903.61 86.304 903.25 85.472 902.69 84.944C902.13 84.416 901.458 84.152 900.674 84.152C899.746 84.152 898.994 84.44 898.418 85.016C897.842 85.592 897.474 86.4 897.314 87.44H903.77Z" fill="#0062F6"/>
</svg>
