<svg width="903" height="102" viewBox="0 0 903 102" fill="none" xmlns="http://www.w3.org/2000/svg">
<rect x="46.5" width="60" height="60" rx="30" fill="#0062F6"/>
<path d="M64.4688 32.1875L72.125 39.8438L89.625 22.3438" stroke="white" stroke-width="3" stroke-linecap="round" stroke-linejoin="round"/>
<line x1="127.5" y1="29" x2="399.5" y2="29" stroke="#0084FF" stroke-width="2" stroke-linecap="round"/>
<rect x="420.5" width="60" height="60" rx="30" fill="#0062F6"/>
<path d="M443.624 25.668C443.792 24.4173 444.193 23.3067 444.828 22.336C445.463 21.3467 446.303 20.572 447.348 20.012C448.393 19.452 449.579 19.172 450.904 19.172C452.155 19.172 453.275 19.424 454.264 19.928C455.253 20.432 456.028 21.1227 456.588 22C457.167 22.8587 457.456 23.8387 457.456 24.94C457.456 25.8733 457.232 26.732 456.784 27.516C456.336 28.2813 455.739 28.9813 454.992 29.616C454.245 30.2507 453.321 30.904 452.22 31.576C451.996 31.7067 451.763 31.8467 451.52 31.996C450.381 32.7427 449.345 33.5453 448.412 34.404C447.497 35.244 447.012 36.028 446.956 36.756H457.596V39.5H443.316C443.316 37.8013 443.624 36.3453 444.24 35.132C444.856 33.9 445.612 32.9013 446.508 32.136C447.404 31.352 448.571 30.5027 450.008 29.588C450.307 29.4013 450.596 29.224 450.876 29.056C451.1 28.9067 451.324 28.7573 451.548 28.608C452.463 27.992 453.163 27.3853 453.648 26.788C454.133 26.172 454.376 25.5467 454.376 24.912C454.376 24.3333 454.227 23.82 453.928 23.372C453.648 22.924 453.237 22.5693 452.696 22.308C452.173 22.0467 451.576 21.916 450.904 21.916C449.784 21.916 448.86 22.2613 448.132 22.952C447.423 23.624 446.947 24.5947 446.704 25.864L443.624 25.668Z" fill="white"/>
<line x1="501.5" y1="29" x2="773.5" y2="29" stroke="#D2D6DB" stroke-width="2" stroke-linecap="round"/>
<rect x="795" y="0.5" width="59" height="59" rx="29.5" stroke="#D2D6DB"/>
<path d="M824.512 27.684C825.147 27.7027 825.753 27.6093 826.332 27.404C826.911 27.18 827.377 26.8347 827.732 26.368C828.105 25.8827 828.292 25.2667 828.292 24.52C828.292 23.9973 828.143 23.54 827.844 23.148C827.545 22.756 827.107 22.4573 826.528 22.252C825.949 22.028 825.277 21.916 824.512 21.916C823.541 21.916 822.739 22.1307 822.104 22.56C821.488 22.9893 821.124 23.568 821.012 24.296L817.932 24.128C818.044 23.176 818.399 22.3267 818.996 21.58C819.612 20.8147 820.396 20.2267 821.348 19.816C822.3 19.3867 823.364 19.172 824.54 19.172C825.884 19.172 827.069 19.396 828.096 19.844C829.123 20.2733 829.925 20.88 830.504 21.664C831.083 22.4293 831.372 23.3253 831.372 24.352C831.372 25.584 830.98 26.592 830.196 27.376C829.412 28.16 828.245 28.6827 826.696 28.944L826.724 28.552C827.844 28.7573 828.805 29.112 829.608 29.616C830.411 30.12 831.017 30.7453 831.428 31.492C831.839 32.2387 832.044 33.088 832.044 34.04C832.044 35.1973 831.727 36.224 831.092 37.12C830.457 38.016 829.571 38.716 828.432 39.22C827.312 39.7053 826.015 39.948 824.54 39.948C823.177 39.948 821.955 39.7053 820.872 39.22C819.808 38.7347 818.959 38.0533 818.324 37.176C817.708 36.2987 817.372 35.3 817.316 34.18L820.368 34.012C820.461 35.0573 820.919 35.8507 821.74 36.392C822.58 36.9333 823.513 37.204 824.54 37.204C825.305 37.204 826.024 37.0827 826.696 36.84C827.387 36.5787 827.937 36.196 828.348 35.692C828.777 35.1693 828.992 34.5067 828.992 33.704C828.992 32.92 828.777 32.2667 828.348 31.744C827.919 31.2027 827.359 30.8107 826.668 30.568C825.996 30.3067 825.277 30.1853 824.512 30.204L822.944 30.232V27.656L824.512 27.684Z" fill="#9DA4AE"/>
<path d="M3.984 89.36C4.128 90.08 4.384 90.712 4.752 91.256C5.136 91.8 5.64 92.216 6.264 92.504C6.888 92.792 7.608 92.936 8.424 92.936C9.112 92.936 9.704 92.848 10.2 92.672C10.712 92.496 11.104 92.232 11.376 91.88C11.648 91.528 11.784 91.104 11.784 90.608C11.784 89.824 11.424 89.176 10.704 88.664C10 88.136 8.84 87.672 7.224 87.272C5.544 86.856 4.2 86.256 3.192 85.472C2.2 84.688 1.704 83.648 1.704 82.352C1.704 81.392 1.952 80.552 2.448 79.832C2.944 79.112 3.624 78.56 4.488 78.176C5.368 77.776 6.384 77.576 7.536 77.576C8.752 77.576 9.832 77.816 10.776 78.296C11.72 78.76 12.472 79.408 13.032 80.24C13.592 81.056 13.944 82.008 14.088 83.096L11.472 83.24C11.376 82.568 11.152 81.984 10.8 81.488C10.448 80.976 9.984 80.584 9.408 80.312C8.848 80.04 8.208 79.904 7.488 79.904C6.56 79.904 5.8 80.128 5.208 80.576C4.616 81.024 4.328 81.624 4.344 82.376C4.344 82.936 4.528 83.4 4.896 83.768C5.28 84.12 5.728 84.4 6.24 84.608C6.752 84.8 7.44 85.016 8.304 85.256L8.664 85.352C10.44 85.816 11.84 86.464 12.864 87.296C13.904 88.112 14.424 89.152 14.424 90.416C14.424 91.44 14.144 92.32 13.584 93.056C13.024 93.792 12.272 94.352 11.328 94.736C10.4 95.104 9.384 95.288 8.28 95.288C7.016 95.288 5.872 95.056 4.848 94.592C3.84 94.112 3.032 93.432 2.424 92.552C1.816 91.672 1.464 90.656 1.368 89.504L3.984 89.36ZM25.8294 86.72C25.7174 85.936 25.3814 85.32 24.8214 84.872C24.2614 84.408 23.6134 84.176 22.8774 84.176C21.7734 84.176 20.9254 84.568 20.3334 85.352C19.7414 86.136 19.4454 87.232 19.4454 88.64C19.4454 90.048 19.7414 91.144 20.3334 91.928C20.9254 92.712 21.7734 93.104 22.8774 93.104C23.6614 93.104 24.3254 92.864 24.8694 92.384C25.4294 91.888 25.7814 91.208 25.9254 90.344L28.5414 90.488C28.4134 91.464 28.0774 92.32 27.5334 93.056C27.0054 93.776 26.3334 94.328 25.5174 94.712C24.7174 95.096 23.8374 95.288 22.8774 95.288C21.6614 95.288 20.5974 95.016 19.6854 94.472C18.7894 93.928 18.0934 93.16 17.5974 92.168C17.1014 91.16 16.8534 89.984 16.8534 88.64C16.8534 87.296 17.1014 86.128 17.5974 85.136C18.0934 84.128 18.7894 83.352 19.6854 82.808C20.5974 82.264 21.6614 81.992 22.8774 81.992C23.8054 81.992 24.6694 82.184 25.4694 82.568C26.2854 82.936 26.9494 83.464 27.4614 84.152C27.9894 84.84 28.3094 85.648 28.4214 86.576L25.8294 86.72ZM33.6426 77.96V85.112L33.2826 84.944C33.5386 83.952 34.0346 83.216 34.7706 82.736C35.5066 82.24 36.3786 81.992 37.3866 81.992C38.7626 81.992 39.8186 82.44 40.5546 83.336C41.2906 84.232 41.6586 85.392 41.6586 86.816V95H39.1626V87.68C39.1626 86.912 39.0826 86.28 38.9226 85.784C38.7626 85.272 38.4986 84.888 38.1306 84.632C37.7786 84.36 37.3066 84.224 36.7146 84.224C35.7546 84.224 35.0026 84.52 34.4586 85.112C33.9146 85.704 33.6426 86.56 33.6426 87.68V95H31.1466V77.96H33.6426ZM50.229 95.288C49.013 95.288 47.949 95.016 47.037 94.472C46.141 93.928 45.445 93.16 44.949 92.168C44.453 91.16 44.205 89.984 44.205 88.64C44.205 87.296 44.453 86.128 44.949 85.136C45.445 84.128 46.141 83.352 47.037 82.808C47.949 82.264 49.013 81.992 50.229 81.992C51.429 81.992 52.485 82.264 53.397 82.808C54.309 83.352 55.013 84.128 55.509 85.136C56.005 86.128 56.253 87.296 56.253 88.64C56.253 89.984 56.005 91.16 55.509 92.168C55.013 93.16 54.309 93.928 53.397 94.472C52.485 95.016 51.429 95.288 50.229 95.288ZM50.229 93.104C51.317 93.104 52.157 92.712 52.749 91.928C53.357 91.144 53.661 90.048 53.661 88.64C53.661 87.232 53.357 86.136 52.749 85.352C52.157 84.568 51.317 84.176 50.229 84.176C49.125 84.176 48.277 84.568 47.685 85.352C47.093 86.136 46.797 87.232 46.797 88.64C46.797 90.048 47.093 91.144 47.685 91.928C48.277 92.712 49.125 93.104 50.229 93.104ZM64.4321 95.288C63.2161 95.288 62.1521 95.016 61.2401 94.472C60.3441 93.928 59.6481 93.16 59.1521 92.168C58.6561 91.16 58.4081 89.984 58.4081 88.64C58.4081 87.296 58.6561 86.128 59.1521 85.136C59.6481 84.128 60.3441 83.352 61.2401 82.808C62.1521 82.264 63.2161 81.992 64.4321 81.992C65.6321 81.992 66.6881 82.264 67.6001 82.808C68.5121 83.352 69.2161 84.128 69.7121 85.136C70.2081 86.128 70.4561 87.296 70.4561 88.64C70.4561 89.984 70.2081 91.16 69.7121 92.168C69.2161 93.16 68.5121 93.928 67.6001 94.472C66.6881 95.016 65.6321 95.288 64.4321 95.288ZM64.4321 93.104C65.5201 93.104 66.3601 92.712 66.9521 91.928C67.5601 91.144 67.8641 90.048 67.8641 88.64C67.8641 87.232 67.5601 86.136 66.9521 85.352C66.3601 84.568 65.5201 84.176 64.4321 84.176C63.3281 84.176 62.4801 84.568 61.8881 85.352C61.2961 86.136 61.0001 87.232 61.0001 88.64C61.0001 90.048 61.2961 91.144 61.8881 91.928C62.4801 92.712 63.3281 93.104 64.4321 93.104ZM76.0673 77.96V92.096C76.0673 92.368 76.1313 92.576 76.2593 92.72C76.4033 92.864 76.6113 92.936 76.8833 92.936H77.9393V95H76.3553C75.5233 95 74.8513 94.744 74.3393 94.232C73.8273 93.72 73.5713 93.048 73.5713 92.216V77.96H76.0673ZM93.1031 77.96C94.3831 77.96 95.4871 78.168 96.4151 78.584C97.3431 79 98.0551 79.608 98.5511 80.408C99.0471 81.192 99.2951 82.136 99.2951 83.24C99.2951 84.344 99.0471 85.304 98.5511 86.12C98.0551 86.92 97.3431 87.536 96.4151 87.968C95.4871 88.384 94.3831 88.592 93.1031 88.592H89.3351V95H86.7911V77.96H93.1031ZM93.0551 86.24C94.2391 86.24 95.1351 85.992 95.7431 85.496C96.3511 84.984 96.6551 84.232 96.6551 83.24C96.6551 82.264 96.3511 81.536 95.7431 81.056C95.1351 80.56 94.2391 80.312 93.0551 80.312H89.3351V86.24H93.0551ZM104.466 82.28L104.562 85.712L104.37 85.544C104.514 84.408 104.842 83.584 105.354 83.072C105.866 82.544 106.602 82.28 107.562 82.28H108.786V84.344H107.538C106.898 84.344 106.362 84.464 105.93 84.704C105.498 84.944 105.178 85.304 104.97 85.784C104.778 86.248 104.682 86.84 104.682 87.56V95H102.186V82.28H104.466ZM115.995 95.288C114.779 95.288 113.715 95.016 112.803 94.472C111.907 93.928 111.211 93.16 110.715 92.168C110.219 91.16 109.971 89.984 109.971 88.64C109.971 87.296 110.219 86.128 110.715 85.136C111.211 84.128 111.907 83.352 112.803 82.808C113.715 82.264 114.779 81.992 115.995 81.992C117.195 81.992 118.251 82.264 119.163 82.808C120.075 83.352 120.779 84.128 121.275 85.136C121.771 86.128 122.019 87.296 122.019 88.64C122.019 89.984 121.771 91.16 121.275 92.168C120.779 93.16 120.075 93.928 119.163 94.472C118.251 95.016 117.195 95.288 115.995 95.288ZM115.995 93.104C117.083 93.104 117.923 92.712 118.515 91.928C119.123 91.144 119.427 90.048 119.427 88.64C119.427 87.232 119.123 86.136 118.515 85.352C117.923 84.568 117.083 84.176 115.995 84.176C114.891 84.176 114.043 84.568 113.451 85.352C112.859 86.136 112.563 87.232 112.563 88.64C112.563 90.048 112.859 91.144 113.451 91.928C114.043 92.712 114.891 93.104 115.995 93.104ZM126.286 81.68C126.286 80.496 126.59 79.584 127.198 78.944C127.822 78.288 128.758 77.96 130.006 77.96H132.142V80.024H130.174C129.758 80.024 129.422 80.176 129.166 80.48C128.91 80.768 128.782 81.168 128.782 81.68V95H126.286V81.68ZM124.534 82.424H131.974V84.488H124.534V82.424ZM137.518 82.28V95H135.022V82.28H137.518ZM137.59 77.96V80.384H134.998V77.96H137.59ZM143.989 77.96V92.096C143.989 92.368 144.053 92.576 144.181 92.72C144.325 92.864 144.533 92.936 144.805 92.936H145.861V95H144.277C143.445 95 142.773 94.744 142.261 94.232C141.749 93.72 141.493 93.048 141.493 92.216V77.96H143.989ZM147.635 88.64C147.635 87.296 147.883 86.128 148.379 85.136C148.875 84.128 149.579 83.352 150.491 82.808C151.403 82.264 152.459 81.992 153.659 81.992C154.699 81.992 155.635 82.224 156.467 82.688C157.315 83.152 157.995 83.872 158.507 84.848C159.035 85.824 159.323 87.04 159.371 88.496L159.395 89.36H150.251C150.347 90.56 150.691 91.488 151.283 92.144C151.875 92.8 152.667 93.128 153.659 93.128C154.299 93.128 154.883 92.96 155.411 92.624C155.939 92.272 156.331 91.792 156.587 91.184L159.203 91.376C158.835 92.56 158.139 93.512 157.115 94.232C156.107 94.936 154.955 95.288 153.659 95.288C152.459 95.288 151.403 95.016 150.491 94.472C149.579 93.928 148.875 93.16 148.379 92.168C147.883 91.16 147.635 89.984 147.635 88.64ZM156.755 87.44C156.595 86.304 156.235 85.472 155.675 84.944C155.115 84.416 154.443 84.152 153.659 84.152C152.731 84.152 151.979 84.44 151.403 85.016C150.827 85.592 150.459 86.4 150.299 87.44H156.755Z" fill="#0062F6"/>
<path d="M427.008 89.504C426.36 92.96 423.96 95.384 419.976 95.384C415.032 95.384 412.128 91.448 412.128 86.504C412.128 81.536 415.008 77.576 419.976 77.576C423.696 77.576 426.12 79.832 426.888 83.096L424.248 83.264C423.72 81.272 422.28 79.928 419.976 79.928C416.328 79.928 414.768 82.952 414.768 86.504C414.768 90.032 416.352 93.032 419.976 93.032C422.376 93.032 423.888 91.52 424.32 89.36L427.008 89.504ZM430.056 77.96H432.552V92.096C432.552 92.672 432.816 92.936 433.368 92.936H434.424V95H432.84C431.16 95 430.056 93.92 430.056 92.216V77.96ZM436.601 86.072C437.105 83.528 439.121 81.992 442.001 81.992C445.457 81.992 447.329 83.912 447.329 87.368V92.168C447.329 92.768 447.593 92.984 448.097 92.984H448.625V95H447.785C446.633 95.024 445.121 94.784 445.025 93.056C444.473 94.256 443.057 95.288 440.969 95.288C438.425 95.288 436.385 93.944 436.385 91.664C436.385 89.096 438.281 88.376 441.185 87.824L444.833 87.104C444.809 85.064 443.873 84.08 442.001 84.08C440.513 84.08 439.529 84.824 439.169 86.24L436.601 86.072ZM438.977 91.616C438.977 92.552 439.769 93.32 441.449 93.32C443.393 93.32 444.881 91.952 444.881 89.168V89.048L442.145 89.528C440.369 89.84 438.977 89.984 438.977 91.616ZM458.395 86.264C458.131 84.92 456.835 84.104 455.515 84.104C454.219 84.104 453.163 84.776 453.187 85.904C453.187 87.056 454.699 87.536 455.995 87.776C459.115 88.352 461.179 89.192 461.179 91.688C461.179 94.184 458.635 95.288 456.019 95.288C452.803 95.288 450.475 93.632 450.283 90.992L452.851 90.824C453.091 92.264 454.219 93.152 455.995 93.152C457.123 93.152 458.587 92.768 458.587 91.592C458.563 90.2 456.955 90.032 455.563 89.72C452.923 89.144 450.595 88.448 450.595 86C450.595 83.528 452.587 81.992 455.731 81.992C458.443 81.992 460.555 83.6 460.963 86.12L458.395 86.264ZM471.45 86.264C471.186 84.92 469.89 84.104 468.57 84.104C467.274 84.104 466.218 84.776 466.242 85.904C466.242 87.056 467.754 87.536 469.05 87.776C472.17 88.352 474.234 89.192 474.234 91.688C474.234 94.184 471.69 95.288 469.074 95.288C465.858 95.288 463.53 93.632 463.338 90.992L465.906 90.824C466.146 92.264 467.274 93.152 469.05 93.152C470.178 93.152 471.642 92.768 471.642 91.592C471.618 90.2 470.01 90.032 468.618 89.72C465.978 89.144 463.65 88.448 463.65 86C463.65 83.528 465.642 81.992 468.786 81.992C471.498 81.992 473.61 83.6 474.018 86.12L471.45 86.264ZM476.393 88.64C476.393 84.584 478.769 81.992 482.417 81.992C485.393 81.992 487.984 83.96 488.129 88.496L488.153 89.36H479.009C479.201 91.736 480.401 93.128 482.417 93.128C483.689 93.128 484.817 92.408 485.345 91.184L487.961 91.376C487.217 93.776 484.985 95.288 482.417 95.288C478.769 95.288 476.393 92.696 476.393 88.64ZM479.057 87.44H485.513C485.177 84.992 483.857 84.152 482.417 84.152C480.545 84.152 479.369 85.376 479.057 87.44ZM498.426 86.264C498.162 84.92 496.866 84.104 495.546 84.104C494.25 84.104 493.194 84.776 493.218 85.904C493.218 87.056 494.73 87.536 496.026 87.776C499.146 88.352 501.21 89.192 501.21 91.688C501.21 94.184 498.666 95.288 496.05 95.288C492.834 95.288 490.506 93.632 490.314 90.992L492.882 90.824C493.122 92.264 494.25 93.152 496.026 93.152C497.154 93.152 498.618 92.768 498.618 91.592C498.594 90.2 496.986 90.032 495.594 89.72C492.954 89.144 490.626 88.448 490.626 86C490.626 83.528 492.618 81.992 495.762 81.992C498.474 81.992 500.586 83.6 500.994 86.12L498.426 86.264Z" fill="#0062F6"/>
<path d="M763.888 77.96V79.928H754.216L755.224 78.92V86.744L754.216 85.688H763.456V87.632H754.216L755.224 86.6V95H753.208V77.96H763.888ZM766.261 88.64C766.261 87.296 766.501 86.128 766.981 85.136C767.461 84.128 768.133 83.352 768.997 82.808C769.877 82.264 770.901 81.992 772.069 81.992C773.061 81.992 773.957 82.216 774.757 82.664C775.573 83.112 776.229 83.816 776.725 84.776C777.237 85.736 777.525 86.936 777.589 88.376L777.613 89.264H768.349C768.445 90.576 768.813 91.6 769.453 92.336C770.109 93.056 770.981 93.416 772.069 93.416C772.773 93.416 773.413 93.224 773.989 92.84C774.565 92.456 774.997 91.928 775.285 91.256L777.397 91.4C777.029 92.584 776.357 93.528 775.381 94.232C774.405 94.936 773.301 95.288 772.069 95.288C770.901 95.288 769.877 95.016 768.997 94.472C768.133 93.928 767.461 93.16 766.981 92.168C766.501 91.16 766.261 89.984 766.261 88.64ZM775.453 87.512C775.277 86.248 774.885 85.328 774.277 84.752C773.669 84.16 772.933 83.864 772.069 83.864C771.045 83.864 770.221 84.184 769.597 84.824C768.973 85.448 768.573 86.344 768.397 87.512H775.453ZM779.855 88.64C779.855 87.296 780.095 86.128 780.575 85.136C781.055 84.128 781.727 83.352 782.591 82.808C783.471 82.264 784.495 81.992 785.663 81.992C786.655 81.992 787.551 82.216 788.351 82.664C789.167 83.112 789.823 83.816 790.319 84.776C790.831 85.736 791.119 86.936 791.183 88.376L791.207 89.264H781.943C782.039 90.576 782.407 91.6 783.047 92.336C783.703 93.056 784.575 93.416 785.663 93.416C786.367 93.416 787.007 93.224 787.583 92.84C788.159 92.456 788.591 91.928 788.879 91.256L790.991 91.4C790.623 92.584 789.951 93.528 788.975 94.232C787.999 94.936 786.895 95.288 785.663 95.288C784.495 95.288 783.471 95.016 782.591 94.472C781.727 93.928 781.055 93.16 780.575 92.168C780.095 91.16 779.855 89.984 779.855 88.64ZM789.047 87.512C788.871 86.248 788.479 85.328 787.871 84.752C787.263 84.16 786.527 83.864 785.663 83.864C784.639 83.864 783.815 84.184 783.191 84.824C782.567 85.448 782.167 86.344 781.991 87.512H789.047ZM801.848 89.432C801.992 90.2 802.264 90.88 802.664 91.472C803.08 92.064 803.624 92.52 804.296 92.84C804.968 93.16 805.744 93.32 806.624 93.32C807.376 93.32 808.024 93.224 808.568 93.032C809.128 92.824 809.56 92.528 809.864 92.144C810.168 91.744 810.32 91.264 810.32 90.704C810.32 89.856 809.928 89.144 809.144 88.568C808.376 87.992 807.128 87.48 805.4 87.032C803.8 86.632 802.512 86.048 801.536 85.28C800.576 84.512 800.096 83.496 800.096 82.232C800.096 81.304 800.328 80.488 800.792 79.784C801.272 79.08 801.928 78.536 802.76 78.152C803.608 77.768 804.576 77.576 805.664 77.576C806.864 77.576 807.928 77.808 808.856 78.272C809.784 78.736 810.52 79.376 811.064 80.192C811.624 81.008 811.96 81.936 812.072 82.976L809.96 83.12C809.864 82.4 809.624 81.776 809.24 81.248C808.856 80.704 808.352 80.288 807.728 80C807.12 79.696 806.424 79.544 805.64 79.544C804.632 79.544 803.808 79.792 803.168 80.288C802.528 80.768 802.208 81.416 802.208 82.232C802.208 82.84 802.4 83.344 802.784 83.744C803.184 84.144 803.664 84.456 804.224 84.68C804.784 84.904 805.528 85.144 806.456 85.4L806.864 85.52C808.576 86 809.928 86.648 810.92 87.464C811.928 88.264 812.432 89.28 812.432 90.512C812.432 91.504 812.16 92.368 811.616 93.104C811.072 93.824 810.344 94.368 809.432 94.736C808.52 95.104 807.536 95.288 806.48 95.288C805.248 95.288 804.136 95.056 803.144 94.592C802.152 94.112 801.36 93.44 800.768 92.576C800.176 91.696 799.832 90.696 799.736 89.576L801.848 89.432ZM818.178 79.4V91.64C818.178 92.184 818.306 92.592 818.562 92.864C818.834 93.12 819.218 93.248 819.714 93.248H821.538V95H819.714C818.594 95 817.73 94.712 817.122 94.136C816.514 93.544 816.21 92.712 816.21 91.64V79.4H818.178ZM821.562 82.28V84.032H814.338V82.28H821.562ZM826.229 82.28L826.325 85.64L826.133 85.448C826.293 84.344 826.629 83.544 827.141 83.048C827.653 82.536 828.389 82.28 829.349 82.28H830.573V84.032H829.349C828.709 84.032 828.173 84.16 827.741 84.416C827.309 84.672 826.989 85.056 826.781 85.568C826.573 86.064 826.469 86.68 826.469 87.416V95H824.501V82.28H826.229ZM841.847 95V91.832L842.063 92.096C841.855 93.152 841.375 93.952 840.623 94.496C839.887 95.024 839.015 95.288 838.007 95.288C836.647 95.288 835.599 94.84 834.863 93.944C834.143 93.032 833.783 91.872 833.783 90.464V82.28H835.751V89.864C835.751 90.68 835.847 91.36 836.039 91.904C836.231 92.432 836.519 92.84 836.903 93.128C837.287 93.4 837.791 93.536 838.415 93.536C839.439 93.536 840.247 93.216 840.839 92.576C841.447 91.936 841.751 91.032 841.751 89.864V82.28H843.719V95H841.847ZM855.91 86.528C855.782 85.712 855.414 85.064 854.806 84.584C854.198 84.104 853.494 83.864 852.694 83.864C851.51 83.864 850.59 84.288 849.934 85.136C849.278 85.968 848.95 87.136 848.95 88.64C848.95 90.144 849.278 91.32 849.934 92.168C850.59 93 851.51 93.416 852.694 93.416C853.526 93.416 854.246 93.16 854.854 92.648C855.478 92.12 855.862 91.408 856.006 90.512L858.094 90.632C857.966 91.576 857.646 92.4 857.134 93.104C856.622 93.808 855.974 94.352 855.19 94.736C854.422 95.104 853.59 95.288 852.694 95.288C851.526 95.288 850.502 95.016 849.622 94.472C848.758 93.928 848.086 93.16 847.606 92.168C847.126 91.16 846.886 89.984 846.886 88.64C846.886 87.296 847.126 86.128 847.606 85.136C848.086 84.128 848.758 83.352 849.622 82.808C850.502 82.264 851.526 81.992 852.694 81.992C853.558 81.992 854.374 82.176 855.142 82.544C855.91 82.896 856.542 83.408 857.038 84.08C857.55 84.752 857.862 85.528 857.974 86.408L855.91 86.528ZM863.553 79.4V91.64C863.553 92.184 863.681 92.592 863.937 92.864C864.209 93.12 864.593 93.248 865.089 93.248H866.913V95H865.089C863.969 95 863.105 94.712 862.497 94.136C861.889 93.544 861.585 92.712 861.585 91.64V79.4H863.553ZM866.937 82.28V84.032H859.713V82.28H866.937ZM877.988 95V91.832L878.204 92.096C877.996 93.152 877.516 93.952 876.764 94.496C876.028 95.024 875.156 95.288 874.148 95.288C872.788 95.288 871.74 94.84 871.004 93.944C870.284 93.032 869.924 91.872 869.924 90.464V82.28H871.892V89.864C871.892 90.68 871.988 91.36 872.18 91.904C872.372 92.432 872.66 92.84 873.044 93.128C873.428 93.4 873.932 93.536 874.556 93.536C875.58 93.536 876.388 93.216 876.98 92.576C877.588 91.936 877.892 91.032 877.892 89.864V82.28H879.86V95H877.988ZM885.666 82.28L885.762 85.64L885.57 85.448C885.73 84.344 886.066 83.544 886.578 83.048C887.09 82.536 887.826 82.28 888.786 82.28H890.01V84.032H888.786C888.146 84.032 887.61 84.16 887.178 84.416C886.746 84.672 886.426 85.056 886.218 85.568C886.01 86.064 885.906 86.68 885.906 87.416V95H883.938V82.28H885.666ZM891.3 88.64C891.3 87.296 891.54 86.128 892.02 85.136C892.5 84.128 893.172 83.352 894.036 82.808C894.916 82.264 895.94 81.992 897.108 81.992C898.1 81.992 898.996 82.216 899.796 82.664C900.612 83.112 901.268 83.816 901.764 84.776C902.276 85.736 902.564 86.936 902.628 88.376L902.652 89.264H893.388C893.484 90.576 893.852 91.6 894.492 92.336C895.148 93.056 896.02 93.416 897.108 93.416C897.812 93.416 898.452 93.224 899.028 92.84C899.604 92.456 900.036 91.928 900.324 91.256L902.436 91.4C902.068 92.584 901.396 93.528 900.42 94.232C899.444 94.936 898.34 95.288 897.108 95.288C895.94 95.288 894.916 95.016 894.036 94.472C893.172 93.928 892.5 93.16 892.02 92.168C891.54 91.16 891.3 89.984 891.3 88.64ZM900.492 87.512C900.316 86.248 899.924 85.328 899.316 84.752C898.708 84.16 897.972 83.864 897.108 83.864C896.084 83.864 895.26 84.184 894.636 84.824C894.012 85.448 893.612 86.344 893.436 87.512H900.492Z" fill="#9DA4AE"/>
</svg>
