<svg width="901" height="102" viewBox="0 0 901 102" fill="none" xmlns="http://www.w3.org/2000/svg">
<rect x="46.5" width="60" height="60" rx="30" fill="#0062F6"/>
<path d="M72.796 22.868C73.916 22.868 74.728 22.616 75.232 22.112C75.7547 21.5893 76.016 20.7587 76.016 19.62H78.34V39.5H75.4V25.248H71.228V22.868H72.796Z" fill="white"/>
<line x1="127.5" y1="29" x2="399.5" y2="29" stroke="#0084FF" stroke-width="2" stroke-linecap="round"/>
<rect x="421" y="0.5" width="59" height="59" rx="29.5" stroke="#D2D6DB"/>
<path d="M443.624 25.668C443.792 24.4173 444.193 23.3067 444.828 22.336C445.463 21.3467 446.303 20.572 447.348 20.012C448.393 19.452 449.579 19.172 450.904 19.172C452.155 19.172 453.275 19.424 454.264 19.928C455.253 20.432 456.028 21.1227 456.588 22C457.167 22.8587 457.456 23.8387 457.456 24.94C457.456 25.8733 457.232 26.732 456.784 27.516C456.336 28.2813 455.739 28.9813 454.992 29.616C454.245 30.2507 453.321 30.904 452.22 31.576C451.996 31.7067 451.763 31.8467 451.52 31.996C450.381 32.7427 449.345 33.5453 448.412 34.404C447.497 35.244 447.012 36.028 446.956 36.756H457.596V39.5H443.316C443.316 37.8013 443.624 36.3453 444.24 35.132C444.856 33.9 445.612 32.9013 446.508 32.136C447.404 31.352 448.571 30.5027 450.008 29.588C450.307 29.4013 450.596 29.224 450.876 29.056C451.1 28.9067 451.324 28.7573 451.548 28.608C452.463 27.992 453.163 27.3853 453.648 26.788C454.133 26.172 454.376 25.5467 454.376 24.912C454.376 24.3333 454.227 23.82 453.928 23.372C453.648 22.924 453.237 22.5693 452.696 22.308C452.173 22.0467 451.576 21.916 450.904 21.916C449.784 21.916 448.86 22.2613 448.132 22.952C447.423 23.624 446.947 24.5947 446.704 25.864L443.624 25.668Z" fill="#9DA4AE"/>
<line x1="501.5" y1="29" x2="773.5" y2="29" stroke="#D2D6DB" stroke-width="2" stroke-linecap="round"/>
<rect x="795" y="0.5" width="59" height="59" rx="29.5" stroke="#D2D6DB"/>
<path d="M824.512 27.684C825.147 27.7027 825.753 27.6093 826.332 27.404C826.911 27.18 827.377 26.8347 827.732 26.368C828.105 25.8827 828.292 25.2667 828.292 24.52C828.292 23.9973 828.143 23.54 827.844 23.148C827.545 22.756 827.107 22.4573 826.528 22.252C825.949 22.028 825.277 21.916 824.512 21.916C823.541 21.916 822.739 22.1307 822.104 22.56C821.488 22.9893 821.124 23.568 821.012 24.296L817.932 24.128C818.044 23.176 818.399 22.3267 818.996 21.58C819.612 20.8147 820.396 20.2267 821.348 19.816C822.3 19.3867 823.364 19.172 824.54 19.172C825.884 19.172 827.069 19.396 828.096 19.844C829.123 20.2733 829.925 20.88 830.504 21.664C831.083 22.4293 831.372 23.3253 831.372 24.352C831.372 25.584 830.98 26.592 830.196 27.376C829.412 28.16 828.245 28.6827 826.696 28.944L826.724 28.552C827.844 28.7573 828.805 29.112 829.608 29.616C830.411 30.12 831.017 30.7453 831.428 31.492C831.839 32.2387 832.044 33.088 832.044 34.04C832.044 35.1973 831.727 36.224 831.092 37.12C830.457 38.016 829.571 38.716 828.432 39.22C827.312 39.7053 826.015 39.948 824.54 39.948C823.177 39.948 821.955 39.7053 820.872 39.22C819.808 38.7347 818.959 38.0533 818.324 37.176C817.708 36.2987 817.372 35.3 817.316 34.18L820.368 34.012C820.461 35.0573 820.919 35.8507 821.74 36.392C822.58 36.9333 823.513 37.204 824.54 37.204C825.305 37.204 826.024 37.0827 826.696 36.84C827.387 36.5787 827.937 36.196 828.348 35.692C828.777 35.1693 828.992 34.5067 828.992 33.704C828.992 32.92 828.777 32.2667 828.348 31.744C827.919 31.2027 827.359 30.8107 826.668 30.568C825.996 30.3067 825.277 30.1853 824.512 30.204L822.944 30.232V27.656L824.512 27.684Z" fill="#9DA4AE"/>
<path d="M3.984 89.36C4.128 90.08 4.384 90.712 4.752 91.256C5.136 91.8 5.64 92.216 6.264 92.504C6.888 92.792 7.608 92.936 8.424 92.936C9.112 92.936 9.704 92.848 10.2 92.672C10.712 92.496 11.104 92.232 11.376 91.88C11.648 91.528 11.784 91.104 11.784 90.608C11.784 89.824 11.424 89.176 10.704 88.664C10 88.136 8.84 87.672 7.224 87.272C5.544 86.856 4.2 86.256 3.192 85.472C2.2 84.688 1.704 83.648 1.704 82.352C1.704 81.392 1.952 80.552 2.448 79.832C2.944 79.112 3.624 78.56 4.488 78.176C5.368 77.776 6.384 77.576 7.536 77.576C8.752 77.576 9.832 77.816 10.776 78.296C11.72 78.76 12.472 79.408 13.032 80.24C13.592 81.056 13.944 82.008 14.088 83.096L11.472 83.24C11.376 82.568 11.152 81.984 10.8 81.488C10.448 80.976 9.984 80.584 9.408 80.312C8.848 80.04 8.208 79.904 7.488 79.904C6.56 79.904 5.8 80.128 5.208 80.576C4.616 81.024 4.328 81.624 4.344 82.376C4.344 82.936 4.528 83.4 4.896 83.768C5.28 84.12 5.728 84.4 6.24 84.608C6.752 84.8 7.44 85.016 8.304 85.256L8.664 85.352C10.44 85.816 11.84 86.464 12.864 87.296C13.904 88.112 14.424 89.152 14.424 90.416C14.424 91.44 14.144 92.32 13.584 93.056C13.024 93.792 12.272 94.352 11.328 94.736C10.4 95.104 9.384 95.288 8.28 95.288C7.016 95.288 5.872 95.056 4.848 94.592C3.84 94.112 3.032 93.432 2.424 92.552C1.816 91.672 1.464 90.656 1.368 89.504L3.984 89.36ZM25.8294 86.72C25.7174 85.936 25.3814 85.32 24.8214 84.872C24.2614 84.408 23.6134 84.176 22.8774 84.176C21.7734 84.176 20.9254 84.568 20.3334 85.352C19.7414 86.136 19.4454 87.232 19.4454 88.64C19.4454 90.048 19.7414 91.144 20.3334 91.928C20.9254 92.712 21.7734 93.104 22.8774 93.104C23.6614 93.104 24.3254 92.864 24.8694 92.384C25.4294 91.888 25.7814 91.208 25.9254 90.344L28.5414 90.488C28.4134 91.464 28.0774 92.32 27.5334 93.056C27.0054 93.776 26.3334 94.328 25.5174 94.712C24.7174 95.096 23.8374 95.288 22.8774 95.288C21.6614 95.288 20.5974 95.016 19.6854 94.472C18.7894 93.928 18.0934 93.16 17.5974 92.168C17.1014 91.16 16.8534 89.984 16.8534 88.64C16.8534 87.296 17.1014 86.128 17.5974 85.136C18.0934 84.128 18.7894 83.352 19.6854 82.808C20.5974 82.264 21.6614 81.992 22.8774 81.992C23.8054 81.992 24.6694 82.184 25.4694 82.568C26.2854 82.936 26.9494 83.464 27.4614 84.152C27.9894 84.84 28.3094 85.648 28.4214 86.576L25.8294 86.72ZM33.6426 77.96V85.112L33.2826 84.944C33.5386 83.952 34.0346 83.216 34.7706 82.736C35.5066 82.24 36.3786 81.992 37.3866 81.992C38.7626 81.992 39.8186 82.44 40.5546 83.336C41.2906 84.232 41.6586 85.392 41.6586 86.816V95H39.1626V87.68C39.1626 86.912 39.0826 86.28 38.9226 85.784C38.7626 85.272 38.4986 84.888 38.1306 84.632C37.7786 84.36 37.3066 84.224 36.7146 84.224C35.7546 84.224 35.0026 84.52 34.4586 85.112C33.9146 85.704 33.6426 86.56 33.6426 87.68V95H31.1466V77.96H33.6426ZM50.229 95.288C49.013 95.288 47.949 95.016 47.037 94.472C46.141 93.928 45.445 93.16 44.949 92.168C44.453 91.16 44.205 89.984 44.205 88.64C44.205 87.296 44.453 86.128 44.949 85.136C45.445 84.128 46.141 83.352 47.037 82.808C47.949 82.264 49.013 81.992 50.229 81.992C51.429 81.992 52.485 82.264 53.397 82.808C54.309 83.352 55.013 84.128 55.509 85.136C56.005 86.128 56.253 87.296 56.253 88.64C56.253 89.984 56.005 91.16 55.509 92.168C55.013 93.16 54.309 93.928 53.397 94.472C52.485 95.016 51.429 95.288 50.229 95.288ZM50.229 93.104C51.317 93.104 52.157 92.712 52.749 91.928C53.357 91.144 53.661 90.048 53.661 88.64C53.661 87.232 53.357 86.136 52.749 85.352C52.157 84.568 51.317 84.176 50.229 84.176C49.125 84.176 48.277 84.568 47.685 85.352C47.093 86.136 46.797 87.232 46.797 88.64C46.797 90.048 47.093 91.144 47.685 91.928C48.277 92.712 49.125 93.104 50.229 93.104ZM64.4321 95.288C63.2161 95.288 62.1521 95.016 61.2401 94.472C60.3441 93.928 59.6481 93.16 59.1521 92.168C58.6561 91.16 58.4081 89.984 58.4081 88.64C58.4081 87.296 58.6561 86.128 59.1521 85.136C59.6481 84.128 60.3441 83.352 61.2401 82.808C62.1521 82.264 63.2161 81.992 64.4321 81.992C65.6321 81.992 66.6881 82.264 67.6001 82.808C68.5121 83.352 69.2161 84.128 69.7121 85.136C70.2081 86.128 70.4561 87.296 70.4561 88.64C70.4561 89.984 70.2081 91.16 69.7121 92.168C69.2161 93.16 68.5121 93.928 67.6001 94.472C66.6881 95.016 65.6321 95.288 64.4321 95.288ZM64.4321 93.104C65.5201 93.104 66.3601 92.712 66.9521 91.928C67.5601 91.144 67.8641 90.048 67.8641 88.64C67.8641 87.232 67.5601 86.136 66.9521 85.352C66.3601 84.568 65.5201 84.176 64.4321 84.176C63.3281 84.176 62.4801 84.568 61.8881 85.352C61.2961 86.136 61.0001 87.232 61.0001 88.64C61.0001 90.048 61.2961 91.144 61.8881 91.928C62.4801 92.712 63.3281 93.104 64.4321 93.104ZM76.0673 77.96V92.096C76.0673 92.368 76.1313 92.576 76.2593 92.72C76.4033 92.864 76.6113 92.936 76.8833 92.936H77.9393V95H76.3553C75.5233 95 74.8513 94.744 74.3393 94.232C73.8273 93.72 73.5713 93.048 73.5713 92.216V77.96H76.0673ZM93.1031 77.96C94.3831 77.96 95.4871 78.168 96.4151 78.584C97.3431 79 98.0551 79.608 98.5511 80.408C99.0471 81.192 99.2951 82.136 99.2951 83.24C99.2951 84.344 99.0471 85.304 98.5511 86.12C98.0551 86.92 97.3431 87.536 96.4151 87.968C95.4871 88.384 94.3831 88.592 93.1031 88.592H89.3351V95H86.7911V77.96H93.1031ZM93.0551 86.24C94.2391 86.24 95.1351 85.992 95.7431 85.496C96.3511 84.984 96.6551 84.232 96.6551 83.24C96.6551 82.264 96.3511 81.536 95.7431 81.056C95.1351 80.56 94.2391 80.312 93.0551 80.312H89.3351V86.24H93.0551ZM104.466 82.28L104.562 85.712L104.37 85.544C104.514 84.408 104.842 83.584 105.354 83.072C105.866 82.544 106.602 82.28 107.562 82.28H108.786V84.344H107.538C106.898 84.344 106.362 84.464 105.93 84.704C105.498 84.944 105.178 85.304 104.97 85.784C104.778 86.248 104.682 86.84 104.682 87.56V95H102.186V82.28H104.466ZM115.995 95.288C114.779 95.288 113.715 95.016 112.803 94.472C111.907 93.928 111.211 93.16 110.715 92.168C110.219 91.16 109.971 89.984 109.971 88.64C109.971 87.296 110.219 86.128 110.715 85.136C111.211 84.128 111.907 83.352 112.803 82.808C113.715 82.264 114.779 81.992 115.995 81.992C117.195 81.992 118.251 82.264 119.163 82.808C120.075 83.352 120.779 84.128 121.275 85.136C121.771 86.128 122.019 87.296 122.019 88.64C122.019 89.984 121.771 91.16 121.275 92.168C120.779 93.16 120.075 93.928 119.163 94.472C118.251 95.016 117.195 95.288 115.995 95.288ZM115.995 93.104C117.083 93.104 117.923 92.712 118.515 91.928C119.123 91.144 119.427 90.048 119.427 88.64C119.427 87.232 119.123 86.136 118.515 85.352C117.923 84.568 117.083 84.176 115.995 84.176C114.891 84.176 114.043 84.568 113.451 85.352C112.859 86.136 112.563 87.232 112.563 88.64C112.563 90.048 112.859 91.144 113.451 91.928C114.043 92.712 114.891 93.104 115.995 93.104ZM126.286 81.68C126.286 80.496 126.59 79.584 127.198 78.944C127.822 78.288 128.758 77.96 130.006 77.96H132.142V80.024H130.174C129.758 80.024 129.422 80.176 129.166 80.48C128.91 80.768 128.782 81.168 128.782 81.68V95H126.286V81.68ZM124.534 82.424H131.974V84.488H124.534V82.424ZM137.518 82.28V95H135.022V82.28H137.518ZM137.59 77.96V80.384H134.998V77.96H137.59ZM143.989 77.96V92.096C143.989 92.368 144.053 92.576 144.181 92.72C144.325 92.864 144.533 92.936 144.805 92.936H145.861V95H144.277C143.445 95 142.773 94.744 142.261 94.232C141.749 93.72 141.493 93.048 141.493 92.216V77.96H143.989ZM147.635 88.64C147.635 87.296 147.883 86.128 148.379 85.136C148.875 84.128 149.579 83.352 150.491 82.808C151.403 82.264 152.459 81.992 153.659 81.992C154.699 81.992 155.635 82.224 156.467 82.688C157.315 83.152 157.995 83.872 158.507 84.848C159.035 85.824 159.323 87.04 159.371 88.496L159.395 89.36H150.251C150.347 90.56 150.691 91.488 151.283 92.144C151.875 92.8 152.667 93.128 153.659 93.128C154.299 93.128 154.883 92.96 155.411 92.624C155.939 92.272 156.331 91.792 156.587 91.184L159.203 91.376C158.835 92.56 158.139 93.512 157.115 94.232C156.107 94.936 154.955 95.288 153.659 95.288C152.459 95.288 151.403 95.016 150.491 94.472C149.579 93.928 148.875 93.16 148.379 92.168C147.883 91.16 147.635 89.984 147.635 88.64ZM156.755 87.44C156.595 86.304 156.235 85.472 155.675 84.944C155.115 84.416 154.443 84.152 153.659 84.152C152.731 84.152 151.979 84.44 151.403 85.016C150.827 85.592 150.459 86.4 150.299 87.44H156.755Z" fill="#042869"/>
<path d="M426.744 89.624C426.424 91.368 425.672 92.768 424.488 93.824C423.304 94.864 421.768 95.384 419.88 95.384C418.28 95.384 416.904 95 415.752 94.232C414.6 93.448 413.712 92.384 413.088 91.04C412.48 89.696 412.176 88.184 412.176 86.504C412.176 84.824 412.48 83.304 413.088 81.944C413.696 80.584 414.576 79.52 415.728 78.752C416.896 77.968 418.28 77.576 419.88 77.576C421.624 77.576 423.08 78.072 424.248 79.064C425.432 80.04 426.216 81.336 426.6 82.952L424.488 83.096C424.2 82.008 423.656 81.144 422.856 80.504C422.072 79.864 421.08 79.544 419.88 79.544C418.632 79.544 417.584 79.856 416.736 80.48C415.904 81.104 415.288 81.944 414.888 83C414.488 84.04 414.288 85.208 414.288 86.504C414.288 87.8 414.488 88.968 414.888 90.008C415.288 91.032 415.912 91.856 416.76 92.48C417.608 93.104 418.648 93.416 419.88 93.416C421.144 93.416 422.176 93.064 422.976 92.36C423.792 91.64 424.328 90.68 424.584 89.48L426.744 89.624ZM431.861 77.96V92.456C431.861 92.728 431.925 92.928 432.053 93.056C432.197 93.184 432.405 93.248 432.677 93.248H433.757V95H432.389C431.637 95 431.029 94.776 430.565 94.328C430.117 93.864 429.893 93.272 429.893 92.552V77.96H431.861ZM436.063 86.024C436.319 84.792 436.903 83.816 437.815 83.096C438.743 82.36 439.887 81.992 441.247 81.992C442.895 81.992 444.159 82.456 445.039 83.384C445.919 84.296 446.359 85.608 446.359 87.32V92.432C446.359 92.704 446.423 92.912 446.551 93.056C446.679 93.184 446.879 93.248 447.151 93.248H447.655V95H446.815H446.695C446.247 94.984 445.855 94.92 445.519 94.808C445.183 94.68 444.911 94.472 444.703 94.184C444.495 93.88 444.399 93.488 444.415 93.008C444.111 93.648 443.607 94.192 442.903 94.64C442.199 95.072 441.367 95.288 440.407 95.288C439.095 95.288 438.007 94.96 437.143 94.304C436.279 93.648 435.847 92.776 435.847 91.688C435.847 90.856 436.039 90.192 436.423 89.696C436.807 89.2 437.335 88.824 438.007 88.568C438.679 88.296 439.551 88.056 440.623 87.848L444.367 87.128C444.367 86.024 444.103 85.208 443.575 84.68C443.063 84.136 442.287 83.864 441.247 83.864C440.447 83.864 439.775 84.064 439.231 84.464C438.703 84.864 438.343 85.44 438.151 86.192L436.063 86.024ZM437.911 91.688C437.911 92.232 438.143 92.68 438.607 93.032C439.087 93.384 439.775 93.552 440.671 93.536C441.391 93.536 442.031 93.368 442.591 93.032C443.167 92.696 443.615 92.2 443.935 91.544C444.271 90.872 444.439 90.056 444.439 89.096L444.415 88.88L441.391 89.408L440.911 89.48C440.207 89.608 439.655 89.736 439.255 89.864C438.855 89.976 438.527 90.176 438.271 90.464C438.031 90.752 437.911 91.16 437.911 91.688ZM457.53 86.192C457.386 85.488 457.01 84.928 456.402 84.512C455.794 84.08 455.114 83.864 454.362 83.864C453.626 83.864 453.01 84.048 452.514 84.416C452.018 84.768 451.77 85.24 451.77 85.832C451.786 86.408 452.074 86.856 452.634 87.176C453.21 87.48 453.946 87.728 454.842 87.92C455.93 88.128 456.826 88.376 457.53 88.664C458.25 88.936 458.81 89.32 459.21 89.816C459.626 90.312 459.834 90.96 459.834 91.76C459.834 92.544 459.594 93.2 459.114 93.728C458.65 94.256 458.042 94.648 457.29 94.904C456.538 95.16 455.738 95.288 454.89 95.288C453.882 95.288 452.97 95.112 452.154 94.76C451.354 94.408 450.706 93.912 450.21 93.272C449.73 92.616 449.458 91.864 449.394 91.016L451.458 90.872C451.554 91.384 451.746 91.832 452.034 92.216C452.322 92.6 452.706 92.896 453.186 93.104C453.682 93.312 454.25 93.416 454.89 93.416C455.658 93.416 456.33 93.28 456.906 93.008C457.482 92.72 457.77 92.272 457.77 91.664C457.77 91.232 457.642 90.896 457.386 90.656C457.146 90.416 456.85 90.24 456.498 90.128C456.162 90 455.69 89.872 455.082 89.744C454.938 89.712 454.738 89.664 454.482 89.6C453.49 89.376 452.666 89.136 452.01 88.88C451.354 88.624 450.81 88.264 450.378 87.8C449.946 87.32 449.73 86.704 449.73 85.952C449.714 85.152 449.906 84.456 450.306 83.864C450.722 83.272 451.298 82.816 452.034 82.496C452.77 82.16 453.618 81.992 454.578 81.992C455.858 81.992 456.962 82.368 457.89 83.12C458.818 83.856 459.386 84.832 459.594 86.048L457.53 86.192ZM470.233 86.192C470.089 85.488 469.713 84.928 469.105 84.512C468.497 84.08 467.817 83.864 467.065 83.864C466.329 83.864 465.713 84.048 465.217 84.416C464.721 84.768 464.473 85.24 464.473 85.832C464.489 86.408 464.777 86.856 465.337 87.176C465.913 87.48 466.649 87.728 467.545 87.92C468.633 88.128 469.529 88.376 470.233 88.664C470.953 88.936 471.513 89.32 471.913 89.816C472.329 90.312 472.537 90.96 472.537 91.76C472.537 92.544 472.297 93.2 471.817 93.728C471.353 94.256 470.745 94.648 469.993 94.904C469.241 95.16 468.441 95.288 467.593 95.288C466.585 95.288 465.673 95.112 464.857 94.76C464.057 94.408 463.409 93.912 462.913 93.272C462.433 92.616 462.161 91.864 462.097 91.016L464.161 90.872C464.257 91.384 464.449 91.832 464.737 92.216C465.025 92.6 465.409 92.896 465.889 93.104C466.385 93.312 466.953 93.416 467.593 93.416C468.361 93.416 469.033 93.28 469.609 93.008C470.185 92.72 470.473 92.272 470.473 91.664C470.473 91.232 470.345 90.896 470.089 90.656C469.849 90.416 469.553 90.24 469.201 90.128C468.865 90 468.393 89.872 467.785 89.744C467.641 89.712 467.441 89.664 467.185 89.6C466.193 89.376 465.369 89.136 464.713 88.88C464.057 88.624 463.513 88.264 463.081 87.8C462.649 87.32 462.433 86.704 462.433 85.952C462.417 85.152 462.609 84.456 463.009 83.864C463.425 83.272 464.001 82.816 464.737 82.496C465.473 82.16 466.321 81.992 467.281 81.992C468.561 81.992 469.665 82.368 470.593 83.12C471.521 83.856 472.089 84.832 472.297 86.048L470.233 86.192ZM474.8 88.64C474.8 87.296 475.04 86.128 475.52 85.136C476 84.128 476.672 83.352 477.536 82.808C478.416 82.264 479.44 81.992 480.608 81.992C481.6 81.992 482.496 82.216 483.296 82.664C484.112 83.112 484.768 83.816 485.264 84.776C485.776 85.736 486.064 86.936 486.128 88.376L486.152 89.264H476.888C476.984 90.576 477.352 91.6 477.992 92.336C478.648 93.056 479.52 93.416 480.608 93.416C481.312 93.416 481.952 93.224 482.528 92.84C483.104 92.456 483.536 91.928 483.824 91.256L485.936 91.4C485.568 92.584 484.896 93.528 483.92 94.232C482.944 94.936 481.84 95.288 480.608 95.288C479.44 95.288 478.416 95.016 477.536 94.472C476.672 93.928 476 93.16 475.52 92.168C475.04 91.16 474.8 89.984 474.8 88.64ZM483.992 87.512C483.816 86.248 483.424 85.328 482.816 84.752C482.208 84.16 481.472 83.864 480.608 83.864C479.584 83.864 478.76 84.184 478.136 84.824C477.512 85.448 477.112 86.344 476.936 87.512H483.992ZM496.53 86.192C496.386 85.488 496.01 84.928 495.402 84.512C494.794 84.08 494.114 83.864 493.362 83.864C492.626 83.864 492.01 84.048 491.514 84.416C491.018 84.768 490.77 85.24 490.77 85.832C490.786 86.408 491.074 86.856 491.634 87.176C492.21 87.48 492.946 87.728 493.842 87.92C494.93 88.128 495.826 88.376 496.53 88.664C497.25 88.936 497.81 89.32 498.21 89.816C498.626 90.312 498.834 90.96 498.834 91.76C498.834 92.544 498.594 93.2 498.114 93.728C497.65 94.256 497.042 94.648 496.29 94.904C495.538 95.16 494.738 95.288 493.89 95.288C492.882 95.288 491.97 95.112 491.154 94.76C490.354 94.408 489.706 93.912 489.21 93.272C488.73 92.616 488.458 91.864 488.394 91.016L490.458 90.872C490.554 91.384 490.746 91.832 491.034 92.216C491.322 92.6 491.706 92.896 492.186 93.104C492.682 93.312 493.25 93.416 493.89 93.416C494.658 93.416 495.33 93.28 495.906 93.008C496.482 92.72 496.77 92.272 496.77 91.664C496.77 91.232 496.642 90.896 496.386 90.656C496.146 90.416 495.85 90.24 495.498 90.128C495.162 90 494.69 89.872 494.082 89.744C493.938 89.712 493.738 89.664 493.482 89.6C492.49 89.376 491.666 89.136 491.01 88.88C490.354 88.624 489.81 88.264 489.378 87.8C488.946 87.32 488.73 86.704 488.73 85.952C488.714 85.152 488.906 84.456 489.306 83.864C489.722 83.272 490.298 82.816 491.034 82.496C491.77 82.16 492.618 81.992 493.578 81.992C494.858 81.992 495.962 82.368 496.89 83.12C497.818 83.856 498.386 84.832 498.594 86.048L496.53 86.192Z" fill="#9DA4AE"/>
<path d="M760.888 77.96V79.928H751.216L752.224 78.92V86.744L751.216 85.688H760.456V87.632H751.216L752.224 86.6V95H750.208V77.96H760.888ZM763.261 88.64C763.261 87.296 763.501 86.128 763.981 85.136C764.461 84.128 765.133 83.352 765.997 82.808C766.877 82.264 767.901 81.992 769.069 81.992C770.061 81.992 770.957 82.216 771.757 82.664C772.573 83.112 773.229 83.816 773.725 84.776C774.237 85.736 774.525 86.936 774.589 88.376L774.613 89.264H765.349C765.445 90.576 765.813 91.6 766.453 92.336C767.109 93.056 767.981 93.416 769.069 93.416C769.773 93.416 770.413 93.224 770.989 92.84C771.565 92.456 771.997 91.928 772.285 91.256L774.397 91.4C774.029 92.584 773.357 93.528 772.381 94.232C771.405 94.936 770.301 95.288 769.069 95.288C767.901 95.288 766.877 95.016 765.997 94.472C765.133 93.928 764.461 93.16 763.981 92.168C763.501 91.16 763.261 89.984 763.261 88.64ZM772.453 87.512C772.277 86.248 771.885 85.328 771.277 84.752C770.669 84.16 769.933 83.864 769.069 83.864C768.045 83.864 767.221 84.184 766.597 84.824C765.973 85.448 765.573 86.344 765.397 87.512H772.453ZM776.855 88.64C776.855 87.296 777.095 86.128 777.575 85.136C778.055 84.128 778.727 83.352 779.591 82.808C780.471 82.264 781.495 81.992 782.663 81.992C783.655 81.992 784.551 82.216 785.351 82.664C786.167 83.112 786.823 83.816 787.319 84.776C787.831 85.736 788.119 86.936 788.183 88.376L788.207 89.264H778.943C779.039 90.576 779.407 91.6 780.047 92.336C780.703 93.056 781.575 93.416 782.663 93.416C783.367 93.416 784.007 93.224 784.583 92.84C785.159 92.456 785.591 91.928 785.879 91.256L787.991 91.4C787.623 92.584 786.951 93.528 785.975 94.232C784.999 94.936 783.895 95.288 782.663 95.288C781.495 95.288 780.471 95.016 779.591 94.472C778.727 93.928 778.055 93.16 777.575 92.168C777.095 91.16 776.855 89.984 776.855 88.64ZM786.047 87.512C785.871 86.248 785.479 85.328 784.871 84.752C784.263 84.16 783.527 83.864 782.663 83.864C781.639 83.864 780.815 84.184 780.191 84.824C779.567 85.448 779.167 86.344 778.991 87.512H786.047ZM798.848 89.432C798.992 90.2 799.264 90.88 799.664 91.472C800.08 92.064 800.624 92.52 801.296 92.84C801.968 93.16 802.744 93.32 803.624 93.32C804.376 93.32 805.024 93.224 805.568 93.032C806.128 92.824 806.56 92.528 806.864 92.144C807.168 91.744 807.32 91.264 807.32 90.704C807.32 89.856 806.928 89.144 806.144 88.568C805.376 87.992 804.128 87.48 802.4 87.032C800.8 86.632 799.512 86.048 798.536 85.28C797.576 84.512 797.096 83.496 797.096 82.232C797.096 81.304 797.328 80.488 797.792 79.784C798.272 79.08 798.928 78.536 799.76 78.152C800.608 77.768 801.576 77.576 802.664 77.576C803.864 77.576 804.928 77.808 805.856 78.272C806.784 78.736 807.52 79.376 808.064 80.192C808.624 81.008 808.96 81.936 809.072 82.976L806.96 83.12C806.864 82.4 806.624 81.776 806.24 81.248C805.856 80.704 805.352 80.288 804.728 80C804.12 79.696 803.424 79.544 802.64 79.544C801.632 79.544 800.808 79.792 800.168 80.288C799.528 80.768 799.208 81.416 799.208 82.232C799.208 82.84 799.4 83.344 799.784 83.744C800.184 84.144 800.664 84.456 801.224 84.68C801.784 84.904 802.528 85.144 803.456 85.4L803.864 85.52C805.576 86 806.928 86.648 807.92 87.464C808.928 88.264 809.432 89.28 809.432 90.512C809.432 91.504 809.16 92.368 808.616 93.104C808.072 93.824 807.344 94.368 806.432 94.736C805.52 95.104 804.536 95.288 803.48 95.288C802.248 95.288 801.136 95.056 800.144 94.592C799.152 94.112 798.36 93.44 797.768 92.576C797.176 91.696 796.832 90.696 796.736 89.576L798.848 89.432ZM815.178 79.4V91.64C815.178 92.184 815.306 92.592 815.562 92.864C815.834 93.12 816.218 93.248 816.714 93.248H818.538V95H816.714C815.594 95 814.73 94.712 814.122 94.136C813.514 93.544 813.21 92.712 813.21 91.64V79.4H815.178ZM818.562 82.28V84.032H811.338V82.28H818.562ZM823.229 82.28L823.325 85.64L823.133 85.448C823.293 84.344 823.629 83.544 824.141 83.048C824.653 82.536 825.389 82.28 826.349 82.28H827.573V84.032H826.349C825.709 84.032 825.173 84.16 824.741 84.416C824.309 84.672 823.989 85.056 823.781 85.568C823.573 86.064 823.469 86.68 823.469 87.416V95H821.501V82.28H823.229ZM838.847 95V91.832L839.063 92.096C838.855 93.152 838.375 93.952 837.623 94.496C836.887 95.024 836.015 95.288 835.007 95.288C833.647 95.288 832.599 94.84 831.863 93.944C831.143 93.032 830.783 91.872 830.783 90.464V82.28H832.751V89.864C832.751 90.68 832.847 91.36 833.039 91.904C833.231 92.432 833.519 92.84 833.903 93.128C834.287 93.4 834.791 93.536 835.415 93.536C836.439 93.536 837.247 93.216 837.839 92.576C838.447 91.936 838.751 91.032 838.751 89.864V82.28H840.719V95H838.847ZM852.91 86.528C852.782 85.712 852.414 85.064 851.806 84.584C851.198 84.104 850.494 83.864 849.694 83.864C848.51 83.864 847.59 84.288 846.934 85.136C846.278 85.968 845.95 87.136 845.95 88.64C845.95 90.144 846.278 91.32 846.934 92.168C847.59 93 848.51 93.416 849.694 93.416C850.526 93.416 851.246 93.16 851.854 92.648C852.478 92.12 852.862 91.408 853.006 90.512L855.094 90.632C854.966 91.576 854.646 92.4 854.134 93.104C853.622 93.808 852.974 94.352 852.19 94.736C851.422 95.104 850.59 95.288 849.694 95.288C848.526 95.288 847.502 95.016 846.622 94.472C845.758 93.928 845.086 93.16 844.606 92.168C844.126 91.16 843.886 89.984 843.886 88.64C843.886 87.296 844.126 86.128 844.606 85.136C845.086 84.128 845.758 83.352 846.622 82.808C847.502 82.264 848.526 81.992 849.694 81.992C850.558 81.992 851.374 82.176 852.142 82.544C852.91 82.896 853.542 83.408 854.038 84.08C854.55 84.752 854.862 85.528 854.974 86.408L852.91 86.528ZM860.553 79.4V91.64C860.553 92.184 860.681 92.592 860.937 92.864C861.209 93.12 861.593 93.248 862.089 93.248H863.913V95H862.089C860.969 95 860.105 94.712 859.497 94.136C858.889 93.544 858.585 92.712 858.585 91.64V79.4H860.553ZM863.937 82.28V84.032H856.713V82.28H863.937ZM874.988 95V91.832L875.204 92.096C874.996 93.152 874.516 93.952 873.764 94.496C873.028 95.024 872.156 95.288 871.148 95.288C869.788 95.288 868.74 94.84 868.004 93.944C867.284 93.032 866.924 91.872 866.924 90.464V82.28H868.892V89.864C868.892 90.68 868.988 91.36 869.18 91.904C869.372 92.432 869.66 92.84 870.044 93.128C870.428 93.4 870.932 93.536 871.556 93.536C872.58 93.536 873.388 93.216 873.98 92.576C874.588 91.936 874.892 91.032 874.892 89.864V82.28H876.86V95H874.988ZM882.666 82.28L882.762 85.64L882.57 85.448C882.73 84.344 883.066 83.544 883.578 83.048C884.09 82.536 884.826 82.28 885.786 82.28H887.01V84.032H885.786C885.146 84.032 884.61 84.16 884.178 84.416C883.746 84.672 883.426 85.056 883.218 85.568C883.01 86.064 882.906 86.68 882.906 87.416V95H880.938V82.28H882.666ZM888.3 88.64C888.3 87.296 888.54 86.128 889.02 85.136C889.5 84.128 890.172 83.352 891.036 82.808C891.916 82.264 892.94 81.992 894.108 81.992C895.1 81.992 895.996 82.216 896.796 82.664C897.612 83.112 898.268 83.816 898.764 84.776C899.276 85.736 899.564 86.936 899.628 88.376L899.652 89.264H890.388C890.484 90.576 890.852 91.6 891.492 92.336C892.148 93.056 893.02 93.416 894.108 93.416C894.812 93.416 895.452 93.224 896.028 92.84C896.604 92.456 897.036 91.928 897.324 91.256L899.436 91.4C899.068 92.584 898.396 93.528 897.42 94.232C896.444 94.936 895.34 95.288 894.108 95.288C892.94 95.288 891.916 95.016 891.036 94.472C890.172 93.928 889.5 93.16 889.02 92.168C888.54 91.16 888.3 89.984 888.3 88.64ZM897.492 87.512C897.316 86.248 896.924 85.328 896.316 84.752C895.708 84.16 894.972 83.864 894.108 83.864C893.084 83.864 892.26 84.184 891.636 84.824C891.012 85.448 890.612 86.344 890.436 87.512H897.492Z" fill="#9DA4AE"/>
</svg>
