<svg width="50" height="50" viewBox="0 0 50 50" fill="none" xmlns="http://www.w3.org/2000/svg">
<path fill-rule="evenodd" clip-rule="evenodd" d="M22.1038 2.61003C22.1043 2.88361 22.1588 3.15441 22.264 3.40697C22.3692 3.65952 22.5231 3.88888 22.7169 4.08195C22.9108 4.27501 23.1408 4.42801 23.3937 4.5322C23.6467 4.6364 23.9177 4.68974 24.1913 4.68919L25.1965 4.68815C33.6851 4.68815 39.3632 4.91003 42.6382 5.09648C43.8653 5.16732 44.7173 5.99232 44.8403 7.06107C45.0798 9.16523 45.3132 12.3382 45.3132 16.7236C45.3132 21.109 45.0798 24.2819 44.8403 26.3861C44.7184 27.4527 43.8642 28.2809 42.6371 28.3506C39.6267 28.5215 34.5882 28.7236 27.2059 28.7548C26.9323 28.756 26.6616 28.811 26.4093 28.9168C26.157 29.0226 25.928 29.177 25.7353 29.3713C25.5427 29.5655 25.3902 29.7959 25.2866 30.0491C25.183 30.3023 25.1302 30.5734 25.1314 30.847C25.1326 31.1206 25.1876 31.3913 25.2934 31.6436C25.3992 31.8959 25.5536 32.1249 25.7479 32.3175C25.9421 32.5102 26.1725 32.6627 26.4257 32.7663C26.6789 32.8699 26.95 32.9226 27.2236 32.9215C34.6736 32.8902 39.7861 32.6861 42.8736 32.51C45.9694 32.3329 48.6101 30.0934 48.9798 26.8579C49.2392 24.5871 49.4798 21.2559 49.4798 16.7236C49.4798 12.1913 49.2392 8.86003 48.9798 6.58815C48.6101 3.35482 45.9726 1.11419 42.8757 0.938151C39.5153 0.745443 33.7569 0.521484 25.1965 0.521484L24.183 0.522526C23.9094 0.523073 23.6386 0.577501 23.386 0.682704C23.1335 0.787906 22.9041 0.941823 22.711 1.13567C22.518 1.32951 22.365 1.55948 22.2608 1.81245C22.1566 2.06542 22.1033 2.33644 22.1038 2.61003ZM21.7944 8.8944C21.7933 6.68499 20.9149 4.56644 19.3522 3.00454C17.7895 1.44264 15.6705 0.565234 13.4611 0.565234C8.85901 0.565234 5.12776 4.2944 5.12776 8.8944C5.12685 10.1389 5.40539 11.3678 5.94284 12.4902C6.48028 13.6127 7.26291 14.6002 8.23297 15.3798C4.91005 15.7725 2.1538 18.2184 1.56005 21.6017C1.11838 24.1163 0.675676 27.3069 0.525676 30.5944C0.442342 32.4152 1.61005 34.0048 3.28193 34.5809L4.83088 35.1142L5.43922 46.3579C5.48664 47.2033 5.85722 47.9982 6.47428 48.578C7.09134 49.1578 7.90766 49.4783 8.75438 49.473C9.60109 49.4678 10.4134 49.1373 11.0233 48.55C11.6331 47.9626 11.9939 47.1632 12.0309 46.3173L12.4194 37.0236C12.4194 36.1611 12.5986 35.4611 13.4611 35.4611C14.3236 35.4611 14.5028 36.1611 14.5028 37.0236L14.8934 46.3288C14.9303 47.1529 15.2803 47.9318 15.8721 48.5065C16.4639 49.0812 17.2527 49.4084 18.0776 49.4212C18.9024 49.4339 19.701 49.1313 20.3102 48.5752C20.9195 48.0191 21.2935 47.2513 21.3559 46.4288L22.9048 25.21L30.3819 24.0329C31.9465 23.7871 33.4038 22.6267 33.6267 20.8694C33.7819 19.6486 33.759 19.4559 33.6694 18.7027L33.6476 18.5131C33.433 16.6694 31.8392 15.5684 30.2101 15.484C26.5965 15.2965 22.7569 15.1923 18.9351 15.1746C19.8337 14.3935 20.5541 13.4284 21.0474 12.3448C21.5407 11.2611 21.7955 10.084 21.7944 8.89336" fill="#8B5CF6"/>
</svg>
