<svg width="380" height="380" viewBox="0 0 380 380" fill="none" xmlns="http://www.w3.org/2000/svg">
<rect width="380" height="380" rx="190" fill="#EAFDF1" fill-opacity="0.9"/>
<path d="M290 190C290 245.228 245.228 290 190 290C134.772 290 90 245.228 90 190C90 134.772 134.772 90 190 90C245.228 90 290 134.772 290 190Z" fill="white"/>
<path d="M190 40C107.35 40 40 107.35 40 190C40 272.65 107.35 340 190 340C272.65 340 340 272.65 340 190C340 107.35 272.65 40 190 40ZM261.7 155.5L176.65 240.55C174.55 242.65 171.7 243.85 168.7 243.85C165.7 243.85 162.85 242.65 160.75 240.55L118.3 198.1C113.95 193.75 113.95 186.55 118.3 182.2C122.65 177.85 129.85 177.85 134.2 182.2L168.7 216.7L245.8 139.6C250.15 135.25 257.35 135.25 261.7 139.6C266.05 143.95 266.05 151 261.7 155.5Z" fill="#43B75D"/>
</svg>
