<svg width="50" height="50" viewBox="0 0 50 50" fill="none" xmlns="http://www.w3.org/2000/svg">
<path opacity="0.5" d="M45.8327 20.8327H4.16602V39.5827C4.16602 41.2403 4.8245 42.83 5.9966 44.0021C7.1687 45.1742 8.75841 45.8327 10.416 45.8327H39.5827C41.2403 45.8327 42.83 45.1742 44.0021 44.0021C45.1742 42.83 45.8327 41.2403 45.8327 39.5827V20.8327ZM14.5827 16.666C14.0301 16.666 13.5002 16.4465 13.1095 16.0558C12.7188 15.6651 12.4993 15.1352 12.4993 14.5827V6.24935C12.4993 5.69681 12.7188 5.16691 13.1095 4.77621C13.5002 4.38551 14.0301 4.16602 14.5827 4.16602C15.1352 4.16602 15.6651 4.38551 16.0558 4.77621C16.4465 5.16691 16.666 5.69681 16.666 6.24935V14.5827C16.666 15.1352 16.4465 15.6651 16.0558 16.0558C15.6651 16.4465 15.1352 16.666 14.5827 16.666ZM35.416 16.666C34.8635 16.666 34.3336 16.4465 33.9429 16.0558C33.5522 15.6651 33.3327 15.1352 33.3327 14.5827V6.24935C33.3327 5.69681 33.5522 5.16691 33.9429 4.77621C34.3336 4.38551 34.8635 4.16602 35.416 4.16602C35.9686 4.16602 36.4985 4.38551 36.8892 4.77621C37.2799 5.16691 37.4994 5.69681 37.4994 6.24935V14.5827C37.4994 15.1352 37.2799 15.6651 36.8892 16.0558C36.4985 16.4465 35.9686 16.666 35.416 16.666Z" fill="#0062F6"/>
<path d="M39.5827 8.33398H37.4994V14.584C37.4994 15.1365 37.2799 15.6664 36.8892 16.0571C36.4985 16.4478 35.9686 16.6673 35.416 16.6673C34.8635 16.6673 34.3336 16.4478 33.9429 16.0571C33.5522 15.6664 33.3327 15.1365 33.3327 14.584V8.33398H16.666V14.584C16.666 15.1365 16.4465 15.6664 16.0558 16.0571C15.6651 16.4478 15.1352 16.6673 14.5827 16.6673C14.0301 16.6673 13.5002 16.4478 13.1095 16.0571C12.7188 15.6664 12.4993 15.1365 12.4993 14.584V8.33398H10.416C8.75841 8.33398 7.1687 8.99246 5.9966 10.1646C4.8245 11.3367 4.16602 12.9264 4.16602 14.584V20.834H45.8327V14.584C45.8327 12.9264 45.1742 11.3367 44.0021 10.1646C42.83 8.99246 41.2403 8.33398 39.5827 8.33398Z" fill="#0062F6"/>
</svg>
