<svg width="18" height="16" viewBox="0 0 18 16" fill="none" xmlns="http://www.w3.org/2000/svg">
<path d="M8.8152 5.75373V14.7537M5.8152 8.75373L8.8152 5.75373L11.8152 8.75373M14.3152 10.7537C15.8342 10.7537 16.8152 9.52273 16.8152 8.00373C16.8151 7.40234 16.618 6.81756 16.2539 6.33893C15.8897 5.86031 15.3788 5.51424 14.7992 5.35373C14.71 4.23218 14.2452 3.17349 13.4799 2.34882C12.7146 1.52414 11.6935 0.981688 10.5817 0.809152C9.46993 0.636616 8.33246 0.844084 7.35319 1.39802C6.37392 1.95195 5.6101 2.81996 5.1852 3.86173C4.29063 3.61375 3.33418 3.7313 2.52628 4.18851C1.71837 4.64572 1.12518 5.40515 0.877202 6.29973C0.629224 7.1943 0.746772 8.15074 1.20399 8.95865C1.6612 9.76656 2.42063 10.3597 3.3152 10.6077" stroke="white" stroke-width="1.5" stroke-linecap="round" stroke-linejoin="round"/>
</svg>
